<svg id="Layer_1" data-name="Layer 1" xmlns="http://www.w3.org/2000/svg" viewBox="0 0 315.76 62.77"><defs><style>.cls-1{fill:#fff;}.cls-2{fill:none;stroke:#fff;}</style></defs><title>app-store</title><path class="cls-1" d="M977.18,528.09a2.7,2.7,0,0,0-2.83-2.87h-1.6V531h1.6A2.72,2.72,0,0,0,977.18,528.09Zm-5.35,3.68V524.4h2.52a3.69,3.69,0,1,1,0,7.37Z" transform="translate(-918.63 -501.18)"/><path class="cls-1" d="M983.64,529.1a1.8,1.8,0,1,0-1.77,2.07A1.86,1.86,0,0,0,983.64,529.1Zm-4.41,0a2.65,2.65,0,1,1,2.64,2.81A2.62,2.62,0,0,1,979.23,529.1Z" transform="translate(-918.63 -501.18)"/><polygon class="cls-1" points="71.85 30.59 70.46 26.3 69.07 30.59 68.24 30.59 66.53 25.25 67.39 25.25 68.7 29.51 70.11 25.25 70.81 25.25 72.22 29.51 73.52 25.25 74.39 25.25 72.68 30.59 71.85 30.59"/><path class="cls-1" d="M997.58,531.77v-3.49c0-.94-.47-1.24-1.19-1.24a2.07,2.07,0,0,0-1.58.83v3.9H994v-5.34h.83v.78a2.6,2.6,0,0,1,1.9-.91,1.51,1.51,0,0,1,1.7,1.72v3.75Z" transform="translate(-918.63 -501.18)"/><rect class="cls-1" x="81.44" y="23.22" width="0.83" height="7.38"/><path class="cls-1" d="M1006.66,529.1a1.8,1.8,0,1,0-1.77,2.07A1.86,1.86,0,0,0,1006.66,529.1Zm-4.41,0a2.65,2.65,0,1,1,2.64,2.81A2.62,2.62,0,0,1,1002.25,529.1Z" transform="translate(-918.63 -501.18)"/><path class="cls-1" d="M1012.22,530.65v-1a1.79,1.79,0,0,0-1.47-.66,1.17,1.17,0,1,0,0,2.33A1.79,1.79,0,0,0,1012.22,530.65Zm0,1.12v-.6a2.33,2.33,0,0,1-1.77.74,1.78,1.78,0,0,1-1.86-1.77,1.74,1.74,0,0,1,1.86-1.76,2.23,2.23,0,0,1,1.77.73v-1c0-.72-.57-1.13-1.35-1.13a2.1,2.1,0,0,0-1.63.74l-.39-.58a2.82,2.82,0,0,1,2.13-.88c1.13,0,2.07.51,2.07,1.8v3.67Z" transform="translate(-918.63 -501.18)"/><path class="cls-1" d="M1018.58,530.33V527.9a2,2,0,0,0-1.6-.86c-1.07,0-1.72.89-1.72,2.07s.65,2.06,1.72,2.06A2,2,0,0,0,1018.58,530.33Zm0,1.44V531a2.26,2.26,0,0,1-1.8.93c-1.39,0-2.38-1.06-2.38-2.8s1-2.81,2.38-2.81a2.21,2.21,0,0,1,1.8.94V524.4h.83v7.37Z" transform="translate(-918.63 -501.18)"/><path class="cls-1" d="M1030,528.09a2.72,2.72,0,1,0-2.71,3A2.74,2.74,0,0,0,1030,528.09Zm-6.37,0a3.66,3.66,0,1,1,3.66,3.82A3.6,3.6,0,0,1,1023.66,528.09Z" transform="translate(-918.63 -501.18)"/><path class="cls-1" d="M1036,531.77v-3.49c0-.94-.48-1.24-1.2-1.24a2.07,2.07,0,0,0-1.58.83v3.9h-.83v-5.34h.83v.78a2.64,2.64,0,0,1,1.9-.91,1.52,1.52,0,0,1,1.71,1.72v3.75Z" transform="translate(-918.63 -501.18)"/><path class="cls-1" d="M1041.49,530.66v-3.5h-.88v-.73h.88V525h.83v1.46h1.09v.73h-1.09v3.32c0,.4.18.69.54.69a.81.81,0,0,0,.57-.22l.24.61a1.35,1.35,0,0,1-1,.35A1.1,1.1,0,0,1,1041.49,530.66Z" transform="translate(-918.63 -501.18)"/><path class="cls-1" d="M1048.19,531.77v-3.51c0-.94-.48-1.22-1.2-1.22a2.1,2.1,0,0,0-1.58.83v3.9h-.83V524.4h.83v2.81a2.61,2.61,0,0,1,1.91-.91A1.5,1.5,0,0,1,1049,528v3.77Z" transform="translate(-918.63 -501.18)"/><path class="cls-1" d="M1053,527a1.78,1.78,0,0,0-1.74,1.79h3.5A1.74,1.74,0,0,0,1053,527Zm-2.62,2.12a2.67,2.67,0,0,1,2.63-2.8,2.59,2.59,0,0,1,2.57,2.86v.21h-4.32a1.87,1.87,0,0,0,1.92,1.85,2.34,2.34,0,0,0,1.65-.67l.4.54a2.91,2.91,0,0,1-2.13.82A2.65,2.65,0,0,1,1050.37,529.1Z" transform="translate(-918.63 -501.18)"/><path class="cls-1" d="M976.44,538.21l-2.78,7h5.55Zm4.42,11.4-1.16-2.9h-6.51l-1.16,2.9h-1.86l5.26-13.08h2l5.27,13.08Z" transform="translate(-918.63 -501.18)"/><path class="cls-1" d="M991.71,544.86c0-2.1-1.14-3.65-3-3.65a3.52,3.52,0,0,0-2.83,1.51V547a3.54,3.54,0,0,0,2.83,1.53C990.57,548.53,991.71,547,991.71,544.86Zm-5.87,3.32v5h-1.47V540.13h1.47v1.42a4,4,0,0,1,3.2-1.65c2.49,0,4.22,1.88,4.22,5s-1.73,5-4.22,5A3.9,3.9,0,0,1,985.84,548.18Z" transform="translate(-918.63 -501.18)"/><path class="cls-1" d="M1002.93,544.86c0-2.1-1.14-3.65-3-3.65a3.5,3.5,0,0,0-2.82,1.51V547a3.52,3.52,0,0,0,2.82,1.53C1001.79,548.53,1002.93,547,1002.93,544.86Zm-5.86,3.32v5h-1.48V540.13h1.48v1.42a4,4,0,0,1,3.19-1.65c2.49,0,4.22,1.88,4.22,5s-1.73,5-4.22,5A3.87,3.87,0,0,1,997.07,548.18Z" transform="translate(-918.63 -501.18)"/><path class="cls-1" d="M1011.15,547.77l1-1.24a5.55,5.55,0,0,0,4.12,1.86c2.34,0,3.08-1.25,3.08-2.25,0-3.38-7.75-1.51-7.75-6.18,0-2.16,1.93-3.63,4.5-3.63a6.18,6.18,0,0,1,4.65,1.82l-1,1.2a5,5,0,0,0-3.78-1.57c-1.57,0-2.69.85-2.69,2.08,0,2.94,7.75,1.26,7.75,6.14,0,1.9-1.3,3.85-4.83,3.85A6.51,6.51,0,0,1,1011.15,547.77Z" transform="translate(-918.63 -501.18)"/><path class="cls-1" d="M1023.34,547.63v-6.2h-1.57v-1.3h1.57v-2.58h1.47v2.58h1.92v1.3h-1.92v5.88c0,.71.31,1.22,1,1.22a1.45,1.45,0,0,0,1-.39l.43,1.1a2.41,2.41,0,0,1-1.77.6A1.93,1.93,0,0,1,1023.34,547.63Z" transform="translate(-918.63 -501.18)"/><path class="cls-1" d="M1036.09,544.86c0-1.92-1.12-3.65-3.14-3.65s-3.16,1.73-3.16,3.65,1.14,3.67,3.16,3.67S1036.09,546.81,1036.09,544.86Zm-7.83,0a4.7,4.7,0,1,1,4.69,5A4.65,4.65,0,0,1,1028.26,544.86Z" transform="translate(-918.63 -501.18)"/><path class="cls-1" d="M1040,549.61v-9.48h1.47v1.54a4.05,4.05,0,0,1,3.16-1.73v1.51a2.55,2.55,0,0,0-.59-.06,3.48,3.48,0,0,0-2.57,1.51v6.71Z" transform="translate(-918.63 -501.18)"/><path class="cls-1" d="M1050.61,541.12a3.14,3.14,0,0,0-3.1,3.15h6.21A3.06,3.06,0,0,0,1050.61,541.12Zm-4.65,3.74a4.74,4.74,0,0,1,4.66-5c2.87,0,4.56,2.24,4.56,5.08v.37h-7.67a3.33,3.33,0,0,0,3.41,3.28,4.11,4.11,0,0,0,2.92-1.2l.71,1a5.16,5.16,0,0,1-3.77,1.46A4.7,4.7,0,0,1,1046,544.86Z" transform="translate(-918.63 -501.18)"/><path class="cls-1" d="M944.13,554.55c-4.7,0-8.59-9.63-8.59-14.52,0-8,6-9.73,8.3-9.73a9.58,9.58,0,0,1,3.13.77,7.18,7.18,0,0,0,1.79.51,5.27,5.27,0,0,0,1.28-.42,10.43,10.43,0,0,1,3.87-.93h0a7.92,7.92,0,0,1,6.63,3.35l.49.73-.7.52a5.87,5.87,0,0,0-2.81,4.83,5.45,5.45,0,0,0,3,5c.44.27.89.54.89,1.13,0,.39-3.08,8.68-7.56,8.68a6.12,6.12,0,0,1-2.55-.62,5.06,5.06,0,0,0-2.27-.55,5.89,5.89,0,0,0-1.8.49,8.83,8.83,0,0,1-3.12.72Z" transform="translate(-918.63 -501.18)"/><path class="cls-1" d="M954.38,523c.12,4.2-2.88,7.12-5.89,6.93C948,526.53,951.5,523,954.38,523Z" transform="translate(-918.63 -501.18)"/><rect class="cls-2" x="0.5" y="12.27" width="153" height="50"/><path class="cls-1" d="M1133.87,515.94l1.56,4h-3.13Zm-1.83,4.79h3.67l.65,1.64h1.05l-3-7.38h-1.14l-3,7.38h1.05Z" transform="translate(-918.63 -501.18)"/><polygon class="cls-1" points="220.66 17.97 224.96 21.77 225.85 21.77 225.85 17.01 224.93 17.01 224.93 20.73 220.68 17.01 219.74 17.01 219.74 21.77 220.66 21.77 220.66 17.97"/><path class="cls-1" d="M1148.72,521.55h-1.6v-5.74h1.6a2.87,2.87,0,0,1,0,5.74Zm0-6.56h-2.52v7.38h2.52a3.69,3.69,0,1,0,0-7.38Z" transform="translate(-918.63 -501.18)"/><path class="cls-1" d="M1154.86,515.81h1.94a1.37,1.37,0,0,1,1.47,1.4,1.38,1.38,0,0,1-1.47,1.42h-1.94Zm0,3.63h1.47l1.88,2.93h1.09l-2-3a2,2,0,0,0,1.91-2.15,2.14,2.14,0,0,0-2.31-2.22h-3v7.38h.92Z" transform="translate(-918.63 -501.18)"/><path class="cls-1" d="M1164,521.68a3,3,0,1,0-1.23-5.71,2.89,2.89,0,0,0-1.48,2.72,2.74,2.74,0,0,0,2.47,3Zm0,.82a3.6,3.6,0,0,1-3.63-3.81,3.65,3.65,0,0,1,2.36-3.6,3.85,3.85,0,0,1,1.3-.22,3.82,3.82,0,0,1,0,7.63Z" transform="translate(-918.63 -501.18)"/><rect class="cls-1" x="250.49" y="13.81" width="0.92" height="7.38"/><path class="cls-1" d="M1174.37,521.55a2.87,2.87,0,0,0-.08-5.74h-1.22c0-.27-.07-.55-.1-.82h1.32a3.59,3.59,0,0,1,3.78,3.7,3.54,3.54,0,0,1-3.42,3.66C1174.55,522.08,1174.46,521.82,1174.37,521.55Zm-2.6.82V515h1.2c0,.27.06.55.1.82h-.38v5.74h1.68c.09.27.18.53.28.8l-.36,0Z" transform="translate(-918.63 -501.18)"/><path class="cls-1" d="M1183.57,519.91l1.57-4,1.56,4Zm1-4.92-3,7.38h1.05l.65-1.64H1187l.66,1.64h1l-3-7.38Z" transform="translate(-918.63 -501.18)"/><path class="cls-1" d="M1190.56,518.62v-2.81h1.93a1.41,1.41,0,1,1,0,2.81Zm4.35-1.41a2.15,2.15,0,0,0-2.31-2.22h-3v7.38h.92v-2.93h2A2.17,2.17,0,0,0,1194.91,517.21Z" transform="translate(-918.63 -501.18)"/><path class="cls-1" d="M1199,518.62h-1.93v-2.81H1199a1.41,1.41,0,1,1,0,2.81Zm.11-3.63h-3v7.38h.92v-2.93h2a2.23,2.23,0,1,0,0-4.45Z" transform="translate(-918.63 -501.18)"/><path class="cls-1" d="M1208.84,521.68a3,3,0,1,1,2.71-3A2.73,2.73,0,0,1,1208.84,521.68Zm0-6.81a3.82,3.82,0,1,0,3.66,3.81A3.6,3.6,0,0,0,1208.84,514.87Z" transform="translate(-918.63 -501.18)"/><polygon class="cls-1" points="300.49 19.57 296.24 13.81 295.3 13.81 295.3 21.19 296.22 21.19 296.22 15.3 300.52 21.19 301.41 21.19 301.41 13.81 300.49 13.81 300.49 19.57"/><path class="cls-1" d="M1135.48,536h3v1.37a3.89,3.89,0,0,1-2.43.87,3.75,3.75,0,0,1,0-7.5,3.23,3.23,0,0,1,2.71,1.49l2-1.1a5.36,5.36,0,0,0-4.73-2.55,5.92,5.92,0,1,0,0,11.83,6.33,6.33,0,0,0,4.86-2.15v-4.39h-5.44Z" transform="translate(-918.63 -501.18)"/><path class="cls-1" d="M1146.64,538.47a2.43,2.43,0,0,1,0-4.81,2.42,2.42,0,0,1,0,4.81Zm0-6.74a4.34,4.34,0,1,0,4.39,4.33A4.18,4.18,0,0,0,1146.64,531.73Z" transform="translate(-918.63 -501.18)"/><path class="cls-1" d="M1156.47,538.47a2.42,2.42,0,1,1,2.12-2.41A2.18,2.18,0,0,1,1156.47,538.47Zm0-6.74a4.34,4.34,0,1,0,4.38,4.33A4.19,4.19,0,0,0,1156.47,531.73Z" transform="translate(-918.63 -501.18)"/><path class="cls-1" d="M1164.18,535.94a2,2,0,0,0,2.08,2.28,2.42,2.42,0,0,0,1.87-.94V534.6a2.39,2.39,0,0,0-1.87-.94A2,2,0,0,0,1164.18,535.94Zm-1.89,6.39,1-1.58a3.27,3.27,0,0,0,2.58,1,2,2,0,0,0,2.28-2.09v-.84a3.22,3.22,0,0,1-2.55,1.3c-2.07,0-3.65-1.45-3.65-4.21s1.56-4.21,3.65-4.21a3.21,3.21,0,0,1,2.55,1.26v-1.06h2.19v7.71c0,3.15-2.43,3.92-4.47,3.92A5,5,0,0,1,1162.29,542.33Z" transform="translate(-918.63 -501.18)"/><polygon class="cls-1" points="255.09 39.02 253.85 39.02 253.85 37.6 253.85 27.6 256.02 27.6 256.02 39.02 255.09 39.02"/><path class="cls-1" d="M1182.33,534.4a1.76,1.76,0,0,0-.66-.67c-.6-.63-1.17-1.28-1.72-2a6,6,0,0,1,.61,0c2.47,0,4.15,1.85,4.15,4.55v.24C1183.88,535.85,1183.09,535.15,1182.33,534.4Zm-6,1.66a4.2,4.2,0,0,1,3.67-4.29c.55.68,1.12,1.33,1.72,2a2.17,2.17,0,0,0-1.11-.27,2,2,0,0,0-2,1.83h4.08a2.07,2.07,0,0,0-.27-.89c.76.75,1.55,1.45,2.38,2.12v.24h-6.15a2.22,2.22,0,0,0,2.38,1.92,3.57,3.57,0,0,0,2.21-.82l1,1.4a5.15,5.15,0,0,1-3.41,1.15A4.19,4.19,0,0,1,1176.28,536.06Z" transform="translate(-918.63 -501.18)"/><path class="cls-1" d="M1195.34,534.4h-3v-4.35h3a2.18,2.18,0,1,1,0,4.35Zm.17-5.62h-4.59V540.2h1.42v-4.54h3.17a3.44,3.44,0,1,0,0-6.88Z" transform="translate(-918.63 -501.18)"/><rect class="cls-1" x="282.29" y="27.6" width="1.28" height="11.42"/><path class="cls-1" d="M1209.94,538.46a2.77,2.77,0,0,1-2.27,1,1.82,1.82,0,1,1,0-3.62,2.74,2.74,0,0,1,2.27,1Zm-1.92-6.73a4.3,4.3,0,0,0-3.3,1.37l.6.89a3.27,3.27,0,0,1,2.53-1.15c1.2,0,2.09.63,2.09,1.75v1.49a3.46,3.46,0,0,0-2.74-1.13,2.71,2.71,0,0,0-2.89,2.72,2.75,2.75,0,0,0,2.89,2.74,3.54,3.54,0,0,0,2.74-1.15v.94h1.29v-5.68C1211.23,532.52,1209.77,531.73,1208,531.73Z" transform="translate(-918.63 -501.18)"/><path class="cls-1" d="M1215.47,541.54l.55-1.25-3.46-8.36H1214l2.75,6.78,2.74-6.78h1.41l-3.89,9.34c-.55.23-1.12.44-1.69.64A2.56,2.56,0,0,0,1215.47,541.54Zm-2.14,1.9.17-1,.34-.09a3,3,0,0,0,.4,0,1.12,1.12,0,0,0,1-.5c.57-.2,1.14-.41,1.69-.64l-.26.61a2.45,2.45,0,0,1-2.43,1.68A4.1,4.1,0,0,1,1213.33,543.44Z" transform="translate(-918.63 -501.18)"/><path class="cls-1" d="M1213.54,542.27l0,.19.34-.1A1.18,1.18,0,0,1,1213.54,542.27Z" transform="translate(-918.63 -501.18)"/><path class="cls-1" d="M1093.66,513.67a3,3,0,0,0-.78,2V537.2a3,3,0,0,0,.74,2l6.65-6.65,6.65-6.65Z" transform="translate(-918.63 -501.18)"/><path class="cls-1" d="M1117.25,529.17a3.07,3.07,0,0,0,0-5.43l-4.76-2.63-4.77,4.77,5.81,5.35Z" transform="translate(-918.63 -501.18)"/><path class="cls-1" d="M1109.64,523.19l2.35-2.35L1097.77,513a3.35,3.35,0,0,0-3.34,0,4.37,4.37,0,0,0-.36.25l13.25,12.22Z" transform="translate(-918.63 -501.18)"/><polygon class="cls-1" points="175.44 12.11 175.44 12.11 188.68 24.32 188.68 24.32 175.44 12.11"/><polygon class="cls-1" points="188.69 24.33 191 22.01 188.69 24.33 188.69 24.33"/><path class="cls-1" d="M1094,539.59a3,3,0,0,0,.41.28,3.28,3.28,0,0,0,3.33,0l15.26-8.4-5.69-5.25-6.36,6.36Z" transform="translate(-918.63 -501.18)"/><path class="cls-1" d="M1094,539.59l7-7Z" transform="translate(-918.63 -501.18)"/><polygon class="cls-1" points="188.7 25.09 188.7 25.09 194.38 30.34 194.38 30.34 188.7 25.09"/><rect class="cls-2" x="162.26" y="0.5" width="153" height="50"/></svg>