<!-- Generator: Adobe Illustrator 22.0.0, SVG Export Plug-In  -->
<svg version="1.1"
	 xmlns="http://www.w3.org/2000/svg" xmlns:xlink="http://www.w3.org/1999/xlink" xmlns:a="http://ns.adobe.com/AdobeSVGViewerExtensions/3.0/"
	 x="0px" y="0px" width="154px" height="51px" viewBox="0 0 154 51" style="enable-background:new 0 0 154 51;"
	 xml:space="preserve">
<style type="text/css">
	.st0{fill:#FFFFFF;}
	.st1{fill:none;stroke:#FFFFFF;}
</style>
<defs>
</defs>
<g>
	<path class="st0" d="M58.5,15.1c0-1.6-1-2.9-2.8-2.9h-1.6V18h1.6C57.5,18,58.5,16.7,58.5,15.1z M53.2,18.8v-7.4h2.5
		c2.3,0,3.8,1.6,3.8,3.7c0,2.1-1.5,3.7-3.8,3.7H53.2z"/>
	<path class="st0" d="M65,16.1c0-1.1-0.6-2.1-1.8-2.1c-1.1,0-1.8,1-1.8,2.1c0,1.1,0.6,2.1,1.8,2.1C64.4,18.2,65,17.2,65,16.1z
		 M60.6,16.1c0-1.5,1-2.8,2.6-2.8c1.6,0,2.6,1.2,2.6,2.8c0,1.5-1,2.8-2.6,2.8C61.6,19,60.6,17.7,60.6,16.1z"/>
	<polygon class="st0" points="71.9,18.8 70.5,14.5 69.1,18.8 68.2,18.8 66.5,13.5 67.4,13.5 68.7,17.7 70.1,13.5 70.8,13.5
		72.2,17.7 73.5,13.5 74.4,13.5 72.7,18.8 	"/>
	<path class="st0" d="M79,18.8v-3.5c0-0.9-0.5-1.2-1.2-1.2c-0.7,0-1.3,0.4-1.6,0.8v3.9h-0.8v-5.3h0.8v0.8c0.4-0.4,1.1-0.9,1.9-0.9
		c1.1,0,1.7,0.6,1.7,1.7v3.8H79z"/>
	<rect x="81.4" y="11.4" class="st0" width="0.8" height="7.4"/>
	<path class="st0" d="M88,16.1c0-1.1-0.6-2.1-1.8-2.1c-1.1,0-1.8,1-1.8,2.1c0,1.1,0.6,2.1,1.8,2.1C87.4,18.2,88,17.2,88,16.1z
		 M83.6,16.1c0-1.5,1-2.8,2.6-2.8c1.6,0,2.6,1.2,2.6,2.8c0,1.5-1,2.8-2.6,2.8C84.6,19,83.6,17.7,83.6,16.1z"/>
	<path class="st0" d="M93.6,17.7v-1c-0.3-0.4-0.9-0.7-1.5-0.7c-0.8,0-1.3,0.5-1.3,1.2c0,0.7,0.5,1.2,1.3,1.2
		C92.7,18.4,93.3,18.1,93.6,17.7z M93.6,18.8v-0.6c-0.4,0.5-1.1,0.7-1.8,0.7c-0.9,0-1.9-0.6-1.9-1.8c0-1.2,1-1.8,1.9-1.8
		c0.7,0,1.3,0.2,1.8,0.7v-1c0-0.7-0.6-1.1-1.4-1.1c-0.6,0-1.2,0.2-1.6,0.7l-0.4-0.6c0.6-0.6,1.3-0.9,2.1-0.9c1.1,0,2.1,0.5,2.1,1.8
		v3.7H93.6z"/>
	<path class="st0" d="M100,17.4V15c-0.3-0.5-0.9-0.9-1.6-0.9c-1.1,0-1.7,0.9-1.7,2.1c0,1.2,0.6,2.1,1.7,2.1
		C99,18.2,99.7,17.8,100,17.4z M100,18.8V18c-0.4,0.5-1.1,0.9-1.8,0.9c-1.4,0-2.4-1.1-2.4-2.8c0-1.7,1-2.8,2.4-2.8
		c0.7,0,1.4,0.4,1.8,0.9v-2.8h0.8v7.4H100z"/>
	<path class="st0" d="M111.4,15.1c0-1.7-1.1-3-2.7-3c-1.7,0-2.7,1.3-2.7,3c0,1.7,1.1,3,2.7,3C110.3,18.1,111.4,16.9,111.4,15.1z
		 M105,15.1c0-2.2,1.5-3.8,3.7-3.8c2.2,0,3.7,1.6,3.7,3.8s-1.5,3.8-3.7,3.8C106.5,19,105,17.3,105,15.1z"/>
	<path class="st0" d="M117.4,18.8v-3.5c0-0.9-0.5-1.2-1.2-1.2c-0.7,0-1.3,0.4-1.6,0.8v3.9h-0.8v-5.3h0.8v0.8
		c0.4-0.4,1.1-0.9,1.9-0.9c1.1,0,1.7,0.6,1.7,1.7v3.8H117.4z"/>
	<path class="st0" d="M122.9,17.7v-3.5H122v-0.7h0.9V12h0.8v1.5h1.1v0.7h-1.1v3.3c0,0.4,0.2,0.7,0.5,0.7c0.2,0,0.5-0.1,0.6-0.2
		l0.2,0.6c-0.2,0.2-0.5,0.3-1,0.3C123.3,19,122.9,18.5,122.9,17.7z"/>
	<path class="st0" d="M129.6,18.8v-3.5c0-0.9-0.5-1.2-1.2-1.2c-0.6,0-1.3,0.4-1.6,0.8v3.9h-0.8v-7.4h0.8v2.8
		c0.4-0.4,1.1-0.9,1.9-0.9c1.1,0,1.7,0.5,1.7,1.7v3.8H129.6z"/>
	<path class="st0" d="M134.4,14c-1.1,0-1.7,1-1.7,1.8h3.5C136.1,15,135.6,14,134.4,14z M131.7,16.1c0-1.5,1.1-2.8,2.6-2.8
		c1.6,0,2.6,1.3,2.6,2.9v0.2h-4.3c0.1,1,0.8,1.8,1.9,1.8c0.6,0,1.2-0.2,1.6-0.7l0.4,0.5c-0.5,0.5-1.2,0.8-2.1,0.8
		C132.9,19,131.7,17.8,131.7,16.1z"/>
	<path class="st0" d="M57.8,25.3l-2.8,7h5.6L57.8,25.3z M62.2,36.7l-1.2-2.9h-6.5l-1.2,2.9h-1.9l5.3-13.1h2l5.3,13.1H62.2z"/>
	<path class="st0" d="M73.1,31.9c0-2.1-1.1-3.6-3-3.6c-1.2,0-2.3,0.7-2.8,1.5v4.3c0.5,0.8,1.7,1.5,2.8,1.5
		C71.9,35.6,73.1,34,73.1,31.9z M67.2,35.2v5h-1.5V27.2h1.5v1.4c0.7-1,1.9-1.6,3.2-1.6c2.5,0,4.2,1.9,4.2,5c0,3.1-1.7,5-4.2,5
		C69.1,36.9,68,36.3,67.2,35.2z"/>
	<path class="st0" d="M84.3,31.9c0-2.1-1.1-3.6-3-3.6c-1.2,0-2.3,0.7-2.8,1.5v4.3c0.5,0.8,1.7,1.5,2.8,1.5
		C83.2,35.6,84.3,34,84.3,31.9z M78.4,35.2v5H77V27.2h1.5v1.4c0.7-1,1.9-1.6,3.2-1.6c2.5,0,4.2,1.9,4.2,5c0,3.1-1.7,5-4.2,5
		C80.3,36.9,79.2,36.3,78.4,35.2z"/>
	<path class="st0" d="M92.5,34.8l1-1.2c0.9,1,2.3,1.9,4.1,1.9c2.3,0,3.1-1.3,3.1-2.3c0-3.4-7.7-1.5-7.7-6.2c0-2.2,1.9-3.6,4.5-3.6
		c2,0,3.6,0.7,4.6,1.8l-1,1.2c-1-1.1-2.4-1.6-3.8-1.6c-1.6,0-2.7,0.8-2.7,2.1c0,2.9,7.7,1.3,7.7,6.1c0,1.9-1.3,3.8-4.8,3.8
		C95.3,36.9,93.6,36,92.5,34.8z"/>
	<path class="st0" d="M104.7,34.7v-6.2h-1.6v-1.3h1.6v-2.6h1.5v2.6h1.9v1.3h-1.9v5.9c0,0.7,0.3,1.2,1,1.2c0.4,0,0.8-0.2,1-0.4
		l0.4,1.1c-0.4,0.4-0.9,0.6-1.8,0.6C105.4,36.9,104.7,36.1,104.7,34.7z"/>
	<path class="st0" d="M117.5,31.9c0-1.9-1.1-3.6-3.1-3.6c-2,0-3.2,1.7-3.2,3.6c0,1.9,1.1,3.7,3.2,3.7
		C116.3,35.6,117.5,33.9,117.5,31.9z M109.6,31.9c0-2.7,1.8-5,4.7-5s4.7,2.2,4.7,5s-1.8,5-4.7,5S109.6,34.7,109.6,31.9z"/>
	<path class="st0" d="M121.4,36.7v-9.5h1.5v1.5c0.8-1,1.9-1.7,3.2-1.7v1.5c-0.2,0-0.4-0.1-0.6-0.1c-0.9,0-2.1,0.7-2.6,1.5v6.7H121.4
		z"/>
	<path class="st0" d="M132,28.2c-2,0-3,1.7-3.1,3.2h6.2C135.1,29.9,134.1,28.2,132,28.2z M127.3,31.9c0-2.7,2-5,4.7-5
		c2.9,0,4.6,2.2,4.6,5.1v0.4h-7.7c0.1,1.8,1.4,3.3,3.4,3.3c1.1,0,2.2-0.4,2.9-1.2l0.7,1c-0.9,0.9-2.2,1.5-3.8,1.5
		C129.3,36.9,127.3,34.9,127.3,31.9z"/>
	<path class="st0" d="M25.5,41.6c-4.7,0-8.6-9.6-8.6-14.5c0-8,6-9.7,8.3-9.7c1,0,2.2,0.4,3.1,0.8c0.7,0.3,1.4,0.5,1.8,0.5
		c0.2,0,0.8-0.2,1.3-0.4c1-0.4,2.4-0.9,3.9-0.9h0c1.1,0,4.6,0.2,6.6,3.4l0.5,0.7l-0.7,0.5c-1,0.8-2.8,2.1-2.8,4.8c0,3.2,2.1,4.4,3,5
		c0.4,0.3,0.9,0.5,0.9,1.1c0,0.4-3.1,8.7-7.6,8.7c-1.1,0-1.9-0.3-2.6-0.6c-0.7-0.3-1.3-0.5-2.3-0.5c-0.5,0-1.1,0.2-1.8,0.5
		C27.7,41.2,26.7,41.6,25.5,41.6L25.5,41.6z"/>
	<path class="st0" d="M35.8,10c0.1,4.2-2.9,7.1-5.9,6.9C29.4,13.6,32.9,10,35.8,10z"/>
	<rect x="0.5" y="0.5" class="st1" width="153" height="50"/>
</g>
</svg>
