<svg id="Layer_1" data-name="Layer 1" xmlns="http://www.w3.org/2000/svg" viewBox="0 0 341.76 69.5"><defs><style>.cls-1{fill:#fff;}</style></defs><title>Untitled-1</title><polygon class="cls-1" points="326.73 20.54 328.61 22.29 326.73 24.17 324.85 22.29 326.73 20.54"/><polygon class="cls-1" points="337.88 35.44 339.38 36.82 337.75 38.32 336.25 36.82 337.88 35.44"/><polygon class="cls-1" points="294.29 33.81 287.28 33.81 287.28 31.06 291.29 31.06 291.29 18.41 294.29 16.91 294.29 33.81"/><polygon class="cls-1" points="299.18 16.91 299.18 32.18 296.3 33.81 296.3 18.41 299.18 16.91"/><path class="cls-1" d="M747.42,668.26H734.77v-2.75H744c-.38-.76-.63-1.51-1.13-2.38a10.07,10.07,0,0,0-1.38-2.26l2.51-2.63a14.36,14.36,0,0,1,1.62,3.88,11.54,11.54,0,0,1,.5,3.39h1.13v2.75Z" transform="translate(-414.18 -634.45)"/><path class="cls-1" d="M753.8,658.37a15,15,0,0,1,2.13,7.14l-.25,2.75H744.79v-2.75h8.89a8.27,8.27,0,0,0-1.13-2.38,12,12,0,0,0-1.38-2.13Z" transform="translate(-414.18 -634.45)"/><path class="cls-1" d="M726.75,657.87a1.43,1.43,0,0,0,1,.37,4.46,4.46,0,0,0,1.25-.12c.37-.13.87-.25,1.25-.38a8.35,8.35,0,0,0,1-.37l-.75,1.87a11.37,11.37,0,0,1-1.13.38c-.5.13-.87.38-1.37.5s-.88.38-1.26.63a1.74,1.74,0,0,0-.75.87l-.12-.37c.12-.38.25-.75.37-1.13a2.36,2.36,0,0,1,.63-.88c-.5-.12-.75-.25-.88-.5a1.86,1.86,0,0,1-.25-.87,3.38,3.38,0,0,1,.38-1.51,2.89,2.89,0,0,1,1-1.12,4.73,4.73,0,0,1,1.38-.63,3.7,3.7,0,0,1,1.62.13l-.25,1.75a1.84,1.84,0,0,0-1.62,0,3.94,3.94,0,0,0-1.51,1.38" transform="translate(-414.18 -634.45)"/><path class="cls-1" d="M721,665.51a4.27,4.27,0,0,1-.37-1.13,5.64,5.64,0,0,1,.12-2.88,6.84,6.84,0,0,1,1.51-2.63L721,657.74a16.78,16.78,0,0,0-1.75,2.38,8.1,8.1,0,0,0-1,2.76,7.67,7.67,0,0,0-.13,2.88A6.13,6.13,0,0,0,719,668l1.75-2.63H721Z" transform="translate(-414.18 -634.45)"/><path class="cls-1" d="M734.39,653.36v12.15H720.74L719,668.14a.12.12,0,0,0,.12.12h18.16v-16.4Z" transform="translate(-414.18 -634.45)"/><path class="cls-1" d="M587.37,666.88l1.63-1.62v-7.89c0-.76-1.38-.76-1.88-.25H586s2.38-2,5.64-4.39c.63,0,.5.75.37.88a4.51,4.51,0,0,0-.87,1.25v6h.62s5.26-3.5,8.65-5.51c.37-.62-.26-1.13-.63-1.5,0,0-.63-.5-.5-.88s1.5.5,4.63,2.88c0,0,.75.38.13.75-.38-.12-.88-.37-1.26-.12,0,0-8.39,4.88-8.89,5.26,0,0,5.39,1.63,11.27,3.13a1.52,1.52,0,0,1,1.13,1.75c-.12,1.51,0,2.76-1.38,2.88H588c-.63.13-.88.75-1.13,1s-2.25-1.88-3.26-4.76c0-.38.76-.76,1.38,0a4,4,0,0,0,2.13,1.87h15.65c1.63,0,1.26-.87.13-.87-1.25-.38-9.64-2.76-10.39-2.88s-.88-.13-1.13,0v1.5l2,1.75Z" transform="translate(-414.18 -634.45)"/><polygon class="cls-1" points="198.12 25.8 201 20.91 198.12 16.78 194.99 19.91 198.12 25.8"/><polygon class="cls-1" points="182.59 10.64 187.47 7.39 191.6 10.14 188.72 13.4 182.59 10.64"/><path class="cls-1" d="M608.79,653.73l3-3.25s-3.25-4.76-5.38-5.51l-3,3.38c.13-.13,5.26,4.76,5.39,5.38" transform="translate(-414.18 -634.45)"/><polygon class="cls-1" points="191.85 9.39 196.61 6.26 190.73 3.51 187.85 6.89 191.85 9.39"/><polygon class="cls-1" points="198.74 16.16 201.37 19.66 204.63 15.28 202 10.39 198.74 16.16"/><polygon class="cls-1" points="164.81 25.92 161.92 20.91 164.93 16.91 167.94 19.91 164.81 25.92"/><polygon class="cls-1" points="180.33 10.64 175.57 7.39 171.32 10.14 174.2 13.4 180.33 10.64"/><path class="cls-1" d="M582.49,653.73l-3-3.25s3.26-4.76,5.26-5.51l3,3.38c.12,0-5,4.88-5.26,5.38" transform="translate(-414.18 -634.45)"/><polygon class="cls-1" points="171.19 9.39 166.31 6.26 172.19 3.63 175.07 6.89 171.19 9.39"/><polygon class="cls-1" points="164.3 16.16 161.55 19.66 158.29 15.28 160.92 10.39 164.3 16.16"/><polygon class="cls-1" points="164.68 30.43 161.8 35.44 164.68 39.45 167.81 36.44 164.68 30.43"/><polygon class="cls-1" points="180.21 45.71 175.32 48.97 171.19 46.21 174.07 42.95 180.21 45.71"/><path class="cls-1" d="M582.36,671.52l-3,3.25s3.25,4.76,5.26,5.51l3-3.38a71.89,71.89,0,0,1-5.26-5.38" transform="translate(-414.18 -634.45)"/><polygon class="cls-1" points="171.07 46.96 166.18 50.09 172.07 52.72 174.95 49.47 171.07 46.96"/><polygon class="cls-1" points="164.05 40.2 161.42 36.69 158.17 41.08 160.8 45.96 164.05 40.2"/><polygon class="cls-1" points="197.99 30.43 200.87 35.44 197.99 39.45 194.86 36.44 197.99 30.43"/><polygon class="cls-1" points="182.46 45.71 187.35 48.84 191.48 46.21 188.6 42.95 182.46 45.71"/><path class="cls-1" d="M608.66,671.39l3,3.26s-3.26,4.76-5.39,5.51l-3-3.38a44.07,44.07,0,0,0,5.38-5.39" transform="translate(-414.18 -634.45)"/><polygon class="cls-1" points="191.6 46.96 196.49 50.09 190.6 52.72 187.72 49.47 191.6 46.96"/><polygon class="cls-1" points="198.62 40.2 201.25 36.69 204.5 41.08 201.87 45.96 198.62 40.2"/><polygon class="cls-1" points="181.34 0 184.22 4.01 181.21 9.02 178.46 3.88 181.34 0"/><polygon class="cls-1" points="181.34 56.35 184.47 52.47 181.46 46.96 178.46 52.35 181.34 56.35"/><polygon class="cls-1" points="207.76 28.43 203.75 31.31 198.74 28.3 204 25.55 207.76 28.43"/><polygon class="cls-1" points="155.41 28.43 159.42 31.31 164.43 28.3 159.54 25.55 155.41 28.43"/><polygon class="cls-1" points="13.78 36.19 13.78 20.16 14.53 20.16 14.53 35.19 20.54 35.19 20.54 36.19 13.78 36.19"/><polygon class="cls-1" points="21.41 37.07 13.02 37.07 13.02 19.29 15.4 19.29 15.4 34.44 21.41 34.44 21.41 37.07"/><path class="cls-1" d="M457.26,669.14a5,5,0,0,1-2.88,1.5h-.88a5,5,0,0,1-4.26-5.13v-11H450v11a3.93,3.93,0,0,0,1,2.75,4.3,4.3,0,0,0,2.26,1.38h1.5a3.62,3.62,0,0,0,2.25-1.38,4.11,4.11,0,0,0,1-2.75v-11h.75v11a6,6,0,0,1-1.5,3.63" transform="translate(-414.18 -634.45)"/><path class="cls-1" d="M454.12,671.52h-.75a5.56,5.56,0,0,1-3.38-1.76,5.78,5.78,0,0,1-1.5-4.13V653.86h2.38v11.65a3.51,3.51,0,0,0,.75,2.25,3.06,3.06,0,0,0,1.75,1.13h1a3.36,3.36,0,0,0,2.5-3.38V653.73h2.38v11.78a5.64,5.64,0,0,1-4.88,5.88.45.45,0,0,1-.26.13" transform="translate(-414.18 -634.45)"/><path class="cls-1" d="M471.53,670.64c-.12,0-.25-.12-.37-.12s-.25-.13-.38-.13a17,17,0,0,1-3.63-1.88,11.8,11.8,0,0,1-3-3.13l.38-.75a.76.76,0,0,0,.5.12c.13,0,.38.13.5.13h.75A3.69,3.69,0,0,0,469,663.5a4.8,4.8,0,0,0-2.76-8.14h-4.51v15.16H461V654.61h5a4.67,4.67,0,0,1,3.38,1.5,5.62,5.62,0,0,1,1.51,4.14,5.49,5.49,0,0,1-1.51,4,5.32,5.32,0,0,1-3.38,1.63h-.37c-.13,0,0,.13-.25,0a16.12,16.12,0,0,0,2.88,2.38,12.28,12.28,0,0,0,3.25,1.5Z" transform="translate(-414.18 -634.45)"/><path class="cls-1" d="M472.16,671.64l-.88-.12c-.12,0-.25-.13-.5-.13s-.25-.12-.38-.12h-.12a18.91,18.91,0,0,1-3.88-2,11.83,11.83,0,0,1-3.26-3.38l-.25-.37,1-1.88.75.25c.13,0,.25.12.38.12a.47.47,0,0,1,.38.13h.5a3.25,3.25,0,0,0,2.25-1.13,3.41,3.41,0,0,0,1-2.75,4.11,4.11,0,0,0-1-2.76,2.82,2.82,0,0,0-2.13-1.13h-3.5v15.16h-2.38V653.73H466a5.84,5.84,0,0,1,4,1.76,6.62,6.62,0,0,1,1.75,4.63,6.4,6.4,0,0,1-1.75,4.63,6.07,6.07,0,0,1-2.51,1.63l1.51,1.13a10.58,10.58,0,0,0,3,1.38l.75.25Z" transform="translate(-414.18 -634.45)"/><path class="cls-1" d="M483.05,661.62a26.83,26.83,0,0,0-2.75-5.26,26.34,26.34,0,0,0-2.76,5.26,24,24,0,0,0-1.5,5.89h8.52a24.07,24.07,0,0,0-1.51-5.89m2,9a3.36,3.36,0,0,0-.13-1.13c0-.37-.12-.75-.12-1.12H476c0,.37-.13.75-.13,1.12s-.12.75-.12,1.13h-.63a3.36,3.36,0,0,1,.13-1.13c0-.37.12-.75.12-1h.5l-.37-.88a36.63,36.63,0,0,1,1.75-6.63,27.15,27.15,0,0,1,3.26-5.89,26.12,26.12,0,0,1,3.76,7.14,37.21,37.21,0,0,1,1.62,8.39Z" transform="translate(-414.18 -634.45)"/><path class="cls-1" d="M477.17,666.63h6.51a30,30,0,0,0-1.38-4.76,17.4,17.4,0,0,0-2-4,41.49,41.49,0,0,0-2,4c-.37,1.51-.87,3.13-1.12,4.76m9.51,4.89h-2.37v-.75a3.33,3.33,0,0,0-.13-1.13v-.38h-7.39v.25c0,.38-.12.75-.12,1.13v.75h-2.38l.12-.87v-1.26c0-.37.13-.75.13-1.12l.12-.63v-.25a42.44,42.44,0,0,1,1.76-6.89,28.05,28.05,0,0,1,3.38-6l.62-.88.63.88a27.78,27.78,0,0,1,3.88,7.39,36.3,36.3,0,0,1,1.63,8.64Z" transform="translate(-414.18 -634.45)"/><path class="cls-1" d="M423.07,661.62a26.34,26.34,0,0,0-2.76-5.26,26.3,26.3,0,0,0-2.75,5.26,24.07,24.07,0,0,0-1.51,5.89h8.52a47,47,0,0,0-1.5-5.89m1.88,9a3.36,3.36,0,0,0-.13-1.13c0-.37-.12-.75-.12-1.12h-8.77c0,.37-.13.75-.13,1.12s-.12.75-.12,1.13h-.63a3.36,3.36,0,0,1,.13-1.13c0-.37.12-.75.12-1l.13-.75v-.13a36.63,36.63,0,0,1,1.75-6.63,27.15,27.15,0,0,1,3.26-5.89,25.82,25.82,0,0,1,3.75,7.14,36.68,36.68,0,0,1,1.63,8.39Z" transform="translate(-414.18 -634.45)"/><path class="cls-1" d="M417.06,666.63h6.51a30.29,30.29,0,0,0-1.38-4.76,17.4,17.4,0,0,0-2-4,41.49,41.49,0,0,0-2,4c-.37,1.51-.87,3.14-1.12,4.76m9.51,4.89h-2.38v-.75a3.6,3.6,0,0,0-.12-1.13v-.38h-7.39v.38c0,.37-.12.75-.12,1.13v.75h-2.38l.12-.88v-1.13c0-.37.13-.75.13-1.12l.12-.88a38.69,38.69,0,0,1,1.75-6.76,28.28,28.28,0,0,1,3.39-6l.62-.88.63.88a27.78,27.78,0,0,1,3.88,7.39,36.2,36.2,0,0,1,1.63,8.64Z" transform="translate(-414.18 -634.45)"/><rect class="cls-1" x="74.26" y="20.16" width="0.75" height="16.03"/><rect class="cls-1" x="73.39" y="19.29" width="2.38" height="17.66"/><path class="cls-1" d="M500.08,661.87a17.42,17.42,0,0,0-1.75,5.77h-.75a17.42,17.42,0,0,0-1.75-5.77,18.21,18.21,0,0,0-3.51-4.63v13.28h-.75v-15l.12.12.13.13.12.12.13.13a16.27,16.27,0,0,1,3.51,4.13,13.17,13.17,0,0,1,2.13,4.63" transform="translate(-414.18 -634.45)"/><path class="cls-1" d="M493.32,671.52h-2.38V653.73l1.38,1.26.13.12.12.13.13.12.12.13a17.75,17.75,0,0,1,3.63,4.38l.13.25a15.67,15.67,0,0,1,1.88,3.51,10.16,10.16,0,0,1,.87-2l1.51.76a15.52,15.52,0,0,0-1.63,5.51l-.13.75H497l-.12-.75a16.36,16.36,0,0,0-1.63-5.51,13.85,13.85,0,0,0-1.88-2.88Z" transform="translate(-414.18 -634.45)"/><path class="cls-1" d="M498.33,664.88a15.49,15.49,0,0,1,2.13-4.63,16.12,16.12,0,0,1,3.51-4.14l.12-.12.13-.13.12-.12.13-.13v15h-.75v-13.4a18.71,18.71,0,0,0-3.51,4.63,17.19,17.19,0,0,0-1.75,5.77h-.75a17.43,17.43,0,0,0-1.76-5.77" transform="translate(-414.18 -634.45)"/><path class="cls-1" d="M505.47,671.52h-2.38v-12a13.85,13.85,0,0,0-1.88,2.88,15.73,15.73,0,0,0-1.63,5.51l-.12.75h-2.13l-.13-.75a16.58,16.58,0,0,0-1.62-5.51l1.5-.76a14.62,14.62,0,0,1,.88,2,18.76,18.76,0,0,1,1.87-3.51l.13-.25a20.26,20.26,0,0,1,3.63-4.38l.13-.13.12-.12.13-.13.12-.12,1.38-1.26Z" transform="translate(-414.18 -634.45)"/><path class="cls-1" d="M438.47,664.38a2.63,2.63,0,0,1,.13-1v-8.77h-.76v16h.76V667h-.13Z" transform="translate(-414.18 -634.45)"/><path class="cls-1" d="M439.35,671.52H437V653.86h2.38v12.27h.12v5.39Z" transform="translate(-414.18 -634.45)"/><path class="cls-1" d="M447,669a9.66,9.66,0,0,0-1.63-2.5,7.48,7.48,0,0,0-2.26-1.63,10.06,10.06,0,0,0-2.75-.88l-.75-.12.5-.5,5.26-4.76a2.28,2.28,0,0,1,1.25-.75h.25v-2c0-.37-.12-1-.37-1.12h-.13a1.82,1.82,0,0,0-1,.62c-1.38,1.38-2.63,2.38-3.51,3.13a15.36,15.36,0,0,0-2,1.88,7.27,7.27,0,0,0-1,1.38,1.53,1.53,0,0,0-.13.75v4.26h.13a8.64,8.64,0,0,1,1.75.12,5.7,5.7,0,0,1,2.25.88,5,5,0,0,1,1.88,1.75,4.25,4.25,0,0,1,.88,2h2.13A7.63,7.63,0,0,0,447,669" transform="translate(-414.18 -634.45)"/><rect class="cls-1" x="92.8" y="20.04" width="0.88" height="16.28"/><rect class="cls-1" x="92.17" y="19.41" width="2.13" height="17.66"/><path class="cls-1" d="M535.27,661.62a26.3,26.3,0,0,0-2.75-5.26,26.86,26.86,0,0,0-2.76,5.26,24,24,0,0,0-1.5,5.89h8.52a45.36,45.36,0,0,0-1.51-5.89m1.88,9a3.63,3.63,0,0,0-.12-1.13c0-.37-.13-.75-.13-1.12h-8.76c0,.37-.13.75-.13,1.12s-.12.75-.12,1.13h-.63a3.36,3.36,0,0,1,.13-1.13c0-.37.12-.75.12-1h.5l-.37-.88a36.63,36.63,0,0,1,1.75-6.63,27.54,27.54,0,0,1,3.25-5.89,25.85,25.85,0,0,1,3.76,7.14,36.68,36.68,0,0,1,1.63,8.39Z" transform="translate(-414.18 -634.45)"/><path class="cls-1" d="M529.26,666.76h6.52A30.75,30.75,0,0,0,534.4,662a16.93,16.93,0,0,0-2-4,40.49,40.49,0,0,0-2,4,38.94,38.94,0,0,0-1.13,4.76m9.52,4.76H536.4v-.75a3.6,3.6,0,0,0-.12-1.13v-.38h-7.39v.25c0,.38-.13.75-.13,1.13v.75h-2.38v-.87c0-.13.38-3.14.38-3.14a42,42,0,0,1,1.75-6.88,28.68,28.68,0,0,1,3.38-6l.63-.88.63.88a28,28,0,0,1,3.88,7.38,36.79,36.79,0,0,1,1.63,8.65Z" transform="translate(-414.18 -634.45)"/><path class="cls-1" d="M550.05,655.74v10.89c-4.51-9-10.14-12.9-10.14-12.9v17.79h2.38v-12a37.37,37.37,0,0,1,7.76,12h2.38V653.86c.13-.25-2.13,1.75-2.38,1.88" transform="translate(-414.18 -634.45)"/><path class="cls-1" d="M563.7,668.89a9.64,9.64,0,0,0-1.63-2.51,7.48,7.48,0,0,0-2.25-1.63,10.11,10.11,0,0,0-2.76-.87l-.75-.13.5-.5,5.26-4.76a2.33,2.33,0,0,1,1.26-.75h.25v-2c0-.38-.13-1-.38-1.13h-.12a1.88,1.88,0,0,0-1,.63c-1.37,1.37-2.63,2.38-3.5,3.13a15.58,15.58,0,0,0-2,1.88,3.16,3.16,0,0,0-.62.75v-7.39h-2.38v17.66h2.38v-4.51a5.41,5.41,0,0,1,1.38.12,5.7,5.7,0,0,1,2.25.88,5.07,5.07,0,0,1,1.88,1.75,4.25,4.25,0,0,1,.87,2h2.13a6.38,6.38,0,0,0-.75-2.63" transform="translate(-414.18 -634.45)"/><polygon class="cls-1" points="101.81 33.81 101.81 18.66 99.43 18.66 99.43 34.56 101.81 34.56 101.81 33.81"/><path class="cls-1" d="M525.38,665.76a6.6,6.6,0,0,0-.75-3.26c.13-.12.13-.37.25-.5a7.29,7.29,0,0,0,.38-2.38,6.35,6.35,0,0,0-.88-3.51,6.62,6.62,0,0,0-.88-1.12,5.68,5.68,0,0,0-1-.88,5,5,0,0,0-3-.88H516v2.51h3.76a4.34,4.34,0,0,1,2.12,1.13c.13.12.26.25.26.37a3.11,3.11,0,0,1,.62,1.88v.5a4.33,4.33,0,0,1-.62,2.25L522,662a4.79,4.79,0,0,1-2.25,1.13h-.51a.44.44,0,0,1-.37-.13c-.13,0-.25-.12-.38-.12l-.75-.25-1,1.87a4.59,4.59,0,0,0,5.89.25,5.1,5.1,0,0,0,.12.63v.5a3.61,3.61,0,0,1-.75,2.38l-.38.38a2.27,2.27,0,0,1-.62.5h-7.64v2.5h8.26a3.65,3.65,0,0,0,1-.5,3.16,3.16,0,0,0,.75-.62,5.81,5.81,0,0,0,1-1.38,7.17,7.17,0,0,0,.38-.88h0a4.66,4.66,0,0,0,.62-2.5" transform="translate(-414.18 -634.45)"/><path class="cls-1" d="M651.86,699.32a2,2,0,0,1,.38,1.25v1.13H650c-.25,0-.38,0-.5-.13a.44.44,0,0,1-.13-.37v-.38c0-.12.13-.25.13-.37v.25c0,.12.12.12.37.12h1.75a1.42,1.42,0,0,0-.37-1c-.25-.25-.38-.5-.63-.75l.5-.88.75,1.13" transform="translate(-414.18 -634.45)"/><path class="cls-1" d="M646.73,700.07c0,.13.13.13.25.25s.25.13.38.13h.87v-.51c-.12-.25-.12-.37-.37-.5s-.25-.12-.5-.12-.25.12-.38.25-.25.25-.25.5m2.13,1.25a2.55,2.55,0,0,1-.38,1.38c-.25.38-.5.88-.75,1.25l-.87-.75a1.94,1.94,0,0,0,.87-.88,6.25,6.25,0,0,0,.5-.87h-.87a.91.91,0,0,1-.5-.13c-.13,0-.25-.12-.38-.12l-.25-.25v-.25a1.18,1.18,0,0,1,.12-.63,1.73,1.73,0,0,1,.26-.75,2.91,2.91,0,0,1,.37-.63,1,1,0,0,1,.63-.25c.25,0,.37.13.62.25a2.89,2.89,0,0,1,.38.63c.12.25.12.5.25.75a6,6,0,0,0,.12.63,1,1,0,0,0-.12.62" transform="translate(-414.18 -634.45)"/><path class="cls-1" d="M645,701v-.25a.41.41,0,0,0-.13-.25c0-.13-.12-.13-.25-.25s-.12-.13-.25-.13-.25.13-.37.25a1,1,0,0,0-.25.63Zm-.75-1.88a1.07,1.07,0,0,1,.75.37,2.92,2.92,0,0,1,.5.76,1.86,1.86,0,0,1,.25.87,1.53,1.53,0,0,1-.13.75H634.08V701h9a.76.76,0,0,1,.12-.5c0-.25.13-.38.25-.63a1.84,1.84,0,0,1,.38-.5c0-.13.13-.25.38-.25" transform="translate(-414.18 -634.45)"/><polygon class="cls-1" points="220.78 66.5 220.78 67.25 219.16 67.25 219.16 62.62 220.03 62.12 220.03 66.5 220.78 66.5"/><path class="cls-1" d="M630.33,701v-.25a.41.41,0,0,0-.13-.25c0-.13-.13-.13-.25-.25s-.13-.13-.25-.13-.25.13-.38.25a1,1,0,0,0-.25.63Zm-.76-1.88a1.11,1.11,0,0,1,.76.37,2.92,2.92,0,0,1,.5.76,1.86,1.86,0,0,1,.25.87,1.53,1.53,0,0,1-.13.75h-5.63V701h3.13a.76.76,0,0,1,.12-.5c0-.25.13-.38.25-.63a1.66,1.66,0,0,1,.38-.5c0-.13.12-.25.37-.25" transform="translate(-414.18 -634.45)"/><path class="cls-1" d="M623.94,700.45a.41.41,0,0,1,.25-.13l.25-.25a3,3,0,0,1,.25-.25c0-.13.13-.13.13-.25a.27.27,0,0,0-.26-.25c-.12,0-.37-.13-.5-.13h-1a2,2,0,0,1,.5.5c0,.38.25.51.38.76m2,1.25h-1.63c-.12,0-.25,0-.25-.13s-.12-.12-.25-.12l-.25.25c-.12,0-.12.12-.25.12h-16.4V701h16.4c-.12-.13-.25-.38-.37-.5s-.25-.38-.38-.51-.37-.25-.5-.37a1.11,1.11,0,0,0-.63-.13l.5-.75c.26,0,.51-.12.88-.12s.63-.13,1-.13a2.7,2.7,0,0,1,1,.13c.25.12.5.12.75.37s.12.25.12.5a.48.48,0,0,1-.12.38c-.13.12-.13.25-.25.38s-.25.25-.25.37l-.38.25h1.25v.88Z" transform="translate(-414.18 -634.45)"/><path class="cls-1" d="M604.4,698.82c.13.12.13.12.25.12H605c.12,0,.25-.12.37-.12a.41.41,0,0,0,.25-.13l-.12.5c-.13,0-.13,0-.25.13s-.25.12-.38.12-.25.13-.37.13l-.25.25v-.13c0-.12,0-.25.12-.25s.13-.12.13-.25-.25,0-.25-.12v-.25a.48.48,0,0,1,.12-.38c.13-.12.13-.25.25-.25a.48.48,0,0,1,.38-.12h.37l-.12.5a.23.23,0,0,0-.38,0,.64.64,0,0,0-.5.25" transform="translate(-414.18 -634.45)"/><path class="cls-1" d="M602.9,701a.41.41,0,0,0-.13-.25v-.88l.38-.75-.38-.38c-.12.25-.37.38-.5.63a1.85,1.85,0,0,0-.25.75V701a1,1,0,0,0,.25.62Z" transform="translate(-414.18 -634.45)"/><polygon class="cls-1" points="192.23 62.62 192.23 65.25 192.23 66.5 191.23 66.5 188.97 66.5 188.6 66.5 188.1 67.25 188.6 67.25 191.48 67.25 192.98 67.25 192.98 66 192.98 65.25 192.98 62.12 192.23 62.62"/><path class="cls-1" d="M539.78,699.19h1.88c.13,0,.25-.12.38-.12a1.17,1.17,0,0,0,.25-.38c0-.12.12-.25.12-.5a1.05,1.05,0,0,0-.25-.75,1,1,0,0,0-.75-.25h-1.5v2Zm2.88,2.51h-.37l-.38-1.25c0-.13-.12-.25-.12-.38a.41.41,0,0,0-.13-.25l-.25-.25c-.12,0-.12-.13-.25-.13h-1.38v2.13h-.25v-4.76h2.26c.12,0,.25.13.37.25s.25.25.25.38a.93.93,0,0,1,.13.63v.5c0,.12-.13.25-.13.37s-.12.25-.25.25a.44.44,0,0,1-.37.13c.12.12.12.12.12.25s.13.12.13.25.12.12.12.25,0,.25.13.25Z" transform="translate(-414.18 -634.45)"/><path class="cls-1" d="M539.91,699.07h1.75a.41.41,0,0,0,.25-.13c.13,0,.13-.12.13-.25v-.37c0-.25-.13-.5-.25-.5a.93.93,0,0,0-.63-.13h-1.25Zm3,2.88h-.75l-.37-1.38c0-.12-.13-.25-.13-.37s-.12-.13-.12-.26-.13-.12-.13-.12h-1.5V702h-.63v-5.14h2.51a1,1,0,0,1,.5.25,1.72,1.72,0,0,1,.37.51,1.3,1.3,0,0,1,.13.75v.5c0,.12-.13.25-.13.37s-.12.25-.25.38l-.12.12c0,.13.12.13.12.25s.13.13.13.26Z" transform="translate(-414.18 -634.45)"/><path class="cls-1" d="M544,697.44h-.25v-.5H544Zm0,4.26h-.25v-3.38H544Z" transform="translate(-414.18 -634.45)"/><path class="cls-1" d="M544.17,697.69h-.63v-.88h.63Zm0,4.26h-.63v-3.76h.63Z" transform="translate(-414.18 -634.45)"/><path class="cls-1" d="M547.17,699.07a1.66,1.66,0,0,0-.5-.38.78.78,0,0,0-.5-.12.48.48,0,0,0-.38.12.28.28,0,0,0-.25.25c-.12.13-.12.25-.12.5a5.59,5.59,0,0,0-.13.63,2,2,0,0,0,.25,1,.7.7,0,0,0,.63.38c.25,0,.38,0,.5-.13l.5-.5Zm.38,2.5a1.53,1.53,0,0,1-.13.75.66.66,0,0,1-.25.51c-.12.12-.25.25-.37.25s-.38.12-.51.12a.79.79,0,0,1-.5-.12c-.12,0-.25-.13-.37-.13l-.25-.25c0-.13-.13-.25-.13-.38h.25a.7.7,0,0,0,.25.51,1,1,0,0,0,.63.12.49.49,0,0,0,.38-.12.28.28,0,0,0,.25-.26.46.46,0,0,0,.12-.37v-.88c-.12.13-.25.25-.25.38s-.12.12-.25.12-.13.13-.25.13h-.25c-.25,0-.38,0-.5-.13l-.38-.37c-.12-.13-.12-.38-.25-.5s-.12-.5-.12-.75a1.67,1.67,0,0,1,.12-.76c.13-.25.13-.37.25-.62l.38-.38c.12-.12.25-.12.5-.12h.25c.12,0,.12,0,.25.12s.13.13.25.13.13.12.25.25v-.38h.25v3.13Z" transform="translate(-414.18 -634.45)"/><path class="cls-1" d="M546.29,698.82c-.12,0-.25,0-.25.12s-.12.13-.25.25a.48.48,0,0,0-.12.38v.63a2.3,2.3,0,0,0,.25,1c.12.25.25.25.5.25a.46.46,0,0,0,.38-.13l.37-.37v-1.51c-.12-.12-.25-.25-.37-.25-.25-.37-.38-.37-.51-.37m0,4.38c-.25,0-.37,0-.5-.12s-.25-.13-.37-.25-.25-.25-.25-.38-.13-.25-.13-.5v-.25h.63v.12c0,.25.12.25.12.25s.25.13.5.13h.38c.13,0,.13-.13.25-.13s.13-.12.13-.25v-.25c-.13.13-.13.13-.25.13a.42.42,0,0,0-.25.12,1.94,1.94,0,0,1-.88-.12c-.13-.13-.38-.25-.38-.38a1,1,0,0,1-.25-.62c0-.25-.12-.5-.12-.75a1.43,1.43,0,0,1,.12-.76c.13-.25.13-.5.25-.62s.25-.38.5-.38a1.94,1.94,0,0,1,.88-.12c.13,0,.13,0,.25.12s.13.13.25.13v-.13h.63v3.38a1.53,1.53,0,0,1-.13.75.65.65,0,0,1-.25.51,1.66,1.66,0,0,1-.5.37h-.63" transform="translate(-414.18 -634.45)"/><path class="cls-1" d="M548.8,698.82l.25-.25a.39.39,0,0,1,.25-.13c.13,0,.13-.12.25-.12h.25c.63,0,.88.37.88,1.25v2.25h-.25v-2.63a.45.45,0,0,0-.13-.25c0-.12-.12-.12-.25-.12h-.37a.76.76,0,0,0-.5.12c-.13.13-.38.25-.51.5V702h-.25v-4.76h.25v1.63Z" transform="translate(-414.18 -634.45)"/><path class="cls-1" d="M551.05,702h-.62v-2.76c0-.12,0-.12-.13-.25l-.12-.12c-.13,0-.38-.13-.63.12l-.37.38V702h-.63v-5.14h.63v1.63c.12-.12.25-.12.25-.25a.46.46,0,0,0,.25-.12h.25c.5,0,1.12.25,1.12,1.37Z" transform="translate(-414.18 -634.45)"/><path class="cls-1" d="M552.81,701.7h-.25a.46.46,0,0,1-.38-.13c-.12,0-.12-.12-.12-.25s-.13-.25-.13-.37v-2.63h-.38v-.38h.38v-.88h.25v.88h.5v.38h-.5v2.5c0,.13,0,.13.13.25l.12.13h.38Z" transform="translate(-414.18 -634.45)"/><path class="cls-1" d="M552.18,701.45c0,.12.13.12.13.12h.12c-.12,0-.12-.12-.25-.12m.38.5a.46.46,0,0,1-.38-.13.27.27,0,0,1-.25-.25c0-.12-.12-.25-.12-.37v-2.38h-.38v-.75h.38v-.88h.62v.88h.5v.75h-.5v2.25h.5v.75h-.25a.12.12,0,0,1-.12.13" transform="translate(-414.18 -634.45)"/><path class="cls-1" d="M557.32,701.32h1.12c.75,0,1.13-.37,1.13-1v-.5a.27.27,0,0,0-.25-.25.46.46,0,0,0-.38-.13h-1.75v1.88Zm0-2.25h1.12a.88.88,0,0,0,1-1,1,1,0,0,0-.25-.63,1,1,0,0,0-.75-.25h-1.12Zm2.63,1.25a1.41,1.41,0,0,1-.38,1,1.54,1.54,0,0,1-1.13.38h-1.5v-4.76h1.5a1.44,1.44,0,0,1,.88.25,1,1,0,0,1,.37.88v.37a.48.48,0,0,1-.12.38.28.28,0,0,1-.25.25.48.48,0,0,1-.38.12c.25,0,.38.13.5.13s.25.12.25.25a.44.44,0,0,1,.13.37.47.47,0,0,1,.13.38" transform="translate(-414.18 -634.45)"/><path class="cls-1" d="M557.57,698.82h.87c.38,0,.5,0,.63-.13s.12-.25.12-.5,0-.37-.12-.5a1,1,0,0,0-.63-.12h-1v1.25Zm0,2.38h1c.87,0,1-.38,1-.75v-.38c0-.13-.13-.13-.13-.25s-.12-.13-.25-.13h-1.37v1.51Zm1,.75h-1.63v-5.14h1.63a1.31,1.31,0,0,1,1.38,1.38v.38a.44.44,0,0,1-.13.37.27.27,0,0,1-.25.25h.12l.38.38a.44.44,0,0,1,.13.37v.38a1.54,1.54,0,0,1-.38,1.13,1.63,1.63,0,0,1-1.25.5" transform="translate(-414.18 -634.45)"/><path class="cls-1" d="M563.08,699.69a1.14,1.14,0,0,0-.38-.87c-.12-.25-.38-.25-.63-.25a.46.46,0,0,0-.37.12.27.27,0,0,0-.25.25c-.13.13-.13.25-.25.38s-.13.37-.13.5h2Zm-1,2.13a1.15,1.15,0,0,1-.62-.12c-.13-.13-.38-.25-.5-.38a.88.88,0,0,1-.25-.5,2.23,2.23,0,0,1,0-1.5c.12-.25.12-.38.25-.5l.37-.38a.79.79,0,0,1,.5-.12c.25,0,.38,0,.5.12l.38.38a.88.88,0,0,1,.25.5,1.53,1.53,0,0,1,.13.75v.13H560.7a1.15,1.15,0,0,0,.12.62c0,.13.13.25.25.38s.25.25.38.25.25.12.37.12h.25a.42.42,0,0,0,.25-.12c.13,0,.13-.13.26-.25s.12-.13.12-.25H563c0,.12-.12.25-.12.37s-.13.25-.25.38-.26.12-.38.25c.25-.13.12-.13-.13-.13" transform="translate(-414.18 -634.45)"/><path class="cls-1" d="M561.2,699.57h1.63a.66.66,0,0,0-.25-.5.94.94,0,0,0-.51-.25h-.25c-.12,0-.12.12-.25.12l-.25.25c0,.25,0,.25-.12.38m.87,2.38c-.25,0-.5,0-.62-.13a1.66,1.66,0,0,1-.5-.37,2.89,2.89,0,0,1-.38-.63,2.4,2.4,0,0,1,0-1.5c.13-.25.13-.5.25-.63a1.8,1.8,0,0,1,.5-.37,1.46,1.46,0,0,1,1.26,0,1.8,1.8,0,0,1,.5.37,1,1,0,0,1,.25.63,1.64,1.64,0,0,1,.12.75v.25h-2.38a.46.46,0,0,0,.13.38c0,.12.12.25.25.37l.25.25a.53.53,0,0,0,.62,0c.13,0,.13,0,.26-.12s.12-.13.12-.13a.39.39,0,0,1,.13-.25v-.12h.75V701c0,.12-.13.37-.13.5l-.37.37c-.13.13-.25.13-.38.25a1.18,1.18,0,0,0-.63-.12" transform="translate(-414.18 -634.45)"/><path class="cls-1" d="M565.33,701.82a1.13,1.13,0,0,1-1.25-1h.37a.66.66,0,0,0,.25.5.93.93,0,0,0,.63.13h.38a.45.45,0,0,0,.25-.13c.12,0,.12-.12.12-.25v-.5a.12.12,0,0,0-.12-.12c-.13,0-.13-.13-.25-.13s-.25-.12-.51-.12-.25-.13-.37-.13-.25-.13-.38-.13l-.25-.25c0-.12-.12-.25-.12-.37a.48.48,0,0,1,.12-.38.28.28,0,0,1,.25-.25.48.48,0,0,1,.38-.12h.37a1.76,1.76,0,0,1,.88.25.91.91,0,0,1,.25.62H566c0-.12-.13-.25-.25-.37s-.25-.13-.51-.13h-.37c-.13,0-.13,0-.25.13a.12.12,0,0,0-.13.12v.38a.12.12,0,0,0,.13.12c.12,0,.12.13.25.13s.25.12.5.12.38.13.5.13.25.13.38.25l.25.25c0,.13.12.25.12.38a.46.46,0,0,1-.12.37c0,.13-.13.25-.25.38s-.25.12-.38.25c-.12-.13-.25-.13-.5-.13" transform="translate(-414.18 -634.45)"/><path class="cls-1" d="M564.58,699.69c.12,0,.12.13.25.13s-.13-.13-.25-.13m.75,2.26c-1,0-1.38-.63-1.38-1.13v-.25h.75v.13c0,.12.13.25.13.37s.25.13.5.13h.25c.13,0,.13,0,.25-.13L566,701v-.25a.13.13,0,0,0-.13-.13.42.42,0,0,0-.25-.12c-.12,0-.25-.13-.5-.13s-.38-.12-.5-.12-.25-.13-.38-.26-.25-.25-.25-.37-.12-.25-.12-.5a1,1,0,0,1,.12-.5c0-.13.13-.25.25-.38s.25-.12.38-.25.37-.12.5-.12a1.44,1.44,0,0,1,.88.25.74.74,0,0,1,.37.75v.25h-.62v-.13a.45.45,0,0,0-.13-.25c-.12,0-.25-.12-.5-.12h-.25c-.13,0-.13,0-.25.12l-.13.13v.37a.45.45,0,0,0,.25.13c.13,0,.25.12.51.12s.37.13.5.13.25.12.37.25.13.25.25.38.13.25.13.37a.72.72,0,0,1-.13.5c-.12.13-.12.25-.25.38s-.25.25-.37.25c0,.25-.13.25-.38.25" transform="translate(-414.18 -634.45)"/><path class="cls-1" d="M567.71,697.44h-.25v-.5h.25Zm0,4.26h-.25v-3.38h.25Z" transform="translate(-414.18 -634.45)"/><path class="cls-1" d="M568,697.69h-.63v-.88H568Zm0,4.26h-.63v-3.76H568Z" transform="translate(-414.18 -634.45)"/><path class="cls-1" d="M570.71,699.07a1.66,1.66,0,0,0-.5-.38.76.76,0,0,0-.5-.12.46.46,0,0,0-.37.12.27.27,0,0,0-.25.25c-.13.13-.13.25-.13.5a6,6,0,0,0-.12.63,1.89,1.89,0,0,0,.25,1,.68.68,0,0,0,.62.38c.25,0,.38,0,.5-.13l.5-.5Zm0,2.13c-.12.12-.12.25-.25.25s-.12.12-.25.12-.12.13-.25.13h-.25c-.25,0-.37,0-.5-.13l-.37-.37c-.13-.13-.13-.38-.25-.5s-.13-.5-.13-.75a1.57,1.57,0,0,1,.13-.76c0-.25.12-.37.25-.62l.37-.38c.13-.12.25-.12.5-.12h.5c.13,0,.13.12.25.12s.13.13.25.25v-1.75H571v4.76h-.26Z" transform="translate(-414.18 -634.45)"/><path class="cls-1" d="M569.71,698.82c-.12,0-.25,0-.25.12s-.12.13-.25.25a.48.48,0,0,0-.12.38v.63a2.3,2.3,0,0,0,.25,1c.12.25.25.25.5.25a.44.44,0,0,0,.37-.13l.38-.37v-1.51c-.13-.12-.25-.25-.38-.25-.12-.37-.25-.37-.5-.37m0,3.13a1.07,1.07,0,0,1-.62-.13c-.13-.12-.38-.25-.38-.37a1,1,0,0,1-.25-.63c0-.25-.12-.5-.12-.75s0-.63.12-.75.13-.5.25-.63.25-.37.5-.37a1.53,1.53,0,0,1,.75-.13c.13,0,.13,0,.25.13s.13.12.25.12v-1.5h.63v5.13h-.63v-.25c-.12.13-.12.13-.25.13a.46.46,0,0,0-.25.12c-.12-.12-.12-.12-.25-.12" transform="translate(-414.18 -634.45)"/><path class="cls-1" d="M574.22,699.69a1.13,1.13,0,0,0-.37-.87c-.13-.25-.38-.25-.63-.25a.48.48,0,0,0-.38.12.28.28,0,0,0-.25.25c-.12.13-.12.25-.25.38s-.12.37-.12.5h2Zm-1,2.13a1.18,1.18,0,0,1-.63-.12c-.12-.13-.37-.25-.5-.38a1,1,0,0,1-.25-.5,2.4,2.4,0,0,1,0-1.5c.13-.25.13-.38.25-.5l.38-.38a.76.76,0,0,1,.5-.12c.25,0,.38,0,.5.12l.38.38a1,1,0,0,1,.25.5,1.64,1.64,0,0,1,.12.75v.13h-2.38a1.07,1.07,0,0,0,.13.62c0,.13.12.25.25.38s.25.25.37.25.25.12.38.12h.25a.42.42,0,0,0,.25-.12c.13,0,.13-.13.25-.25s.13-.13.13-.25h.25c0,.12-.13.25-.13.37s-.12.25-.25.38-.25.12-.37.25c.25-.13.12-.13-.13-.13" transform="translate(-414.18 -634.45)"/><path class="cls-1" d="M572.34,699.57H574a.63.63,0,0,0-.25-.5.79.79,0,0,0-.88-.13c-.12,0-.12.13-.25.13l-.25.25c.13.12.13.12,0,.25m.88,2.38a.93.93,0,0,1-.63-.13,1.8,1.8,0,0,1-.5-.37,2.91,2.91,0,0,1-.37-.63,2.23,2.23,0,0,1,0-1.5c.12-.25.12-.5.25-.63a1.66,1.66,0,0,1,.5-.37,1.44,1.44,0,0,1,1.25,0,1.66,1.66,0,0,1,.5.37,1,1,0,0,1,.25.63,1.53,1.53,0,0,1,.13.75v.25h-2.38a.48.48,0,0,0,.12.38c0,.12.13.25.25.37l.25.25a.55.55,0,0,0,.63,0c.13,0,.13,0,.25-.12a.13.13,0,0,0,.13-.13.41.41,0,0,1,.12-.25v-.12h.75V701c0,.12-.12.37-.12.5l-.38.37c-.12.13-.25.13-.37.25a1.18,1.18,0,0,0-.63-.12" transform="translate(-414.18 -634.45)"/><polygon class="cls-1" points="168.06 62.49 166.43 65.25 166.43 67.25 166.06 67.25 166.06 65.25 164.43 62.49 164.81 62.49 166.18 64.87 167.69 62.49 168.06 62.49"/><polygon class="cls-1" points="166.56 67.5 165.93 67.5 165.93 65.25 164.05 62.24 164.81 62.24 166.18 64.5 167.56 62.24 168.44 62.24 166.56 65.25 166.56 67.5"/><path class="cls-1" d="M584.11,701.45a.45.45,0,0,0,.38-.13c.13,0,.25-.12.38-.25s.12-.25.25-.5a5.26,5.26,0,0,0,.12-.62,1,1,0,0,0-.12-.63,1,1,0,0,0-.25-.5c-.13-.13-.25-.25-.38-.25s-.25-.13-.38-.13a.44.44,0,0,0-.37.13c-.13,0-.25.12-.38.25s-.12.25-.25.5a5.1,5.1,0,0,0-.12.63,2.19,2.19,0,0,0,.37,1.12c.13.13.25.25.38.25s.25.13.37.13m0-3.26c.26,0,.38,0,.51.13l.37.37a1,1,0,0,1,.25.5,1.55,1.55,0,0,1,.13.76,1.53,1.53,0,0,1-.13.75c-.12.25-.12.37-.25.5l-.37.37a.76.76,0,0,1-.51.13.74.74,0,0,1-.5-.13l-.37-.37a1,1,0,0,1-.25-.5,1.53,1.53,0,0,1-.13-.75,1.55,1.55,0,0,1,.13-.76c.12-.25.12-.37.25-.5l.37-.37c.13,0,.25-.13.5-.13" transform="translate(-414.18 -634.45)"/><path class="cls-1" d="M584.11,698.82a.46.46,0,0,0-.37.12c-.13,0-.13.13-.25.25a.46.46,0,0,0-.13.38,5.1,5.1,0,0,0-.12.63,1.15,1.15,0,0,0,.12.62c0,.13.13.25.13.38l.25.25a.59.59,0,0,0,.63,0c.12,0,.12-.13.25-.25a.48.48,0,0,0,.12-.38,4.91,4.91,0,0,0,.13-.62,1.09,1.09,0,0,0-.13-.63c0-.13-.12-.25-.12-.38l-.25-.25c0-.12-.13-.12-.26-.12m0,3.13c-.25,0-.5,0-.62-.13a1.66,1.66,0,0,1-.5-.37,1,1,0,0,1-.25-.63,1.53,1.53,0,0,1-.13-.75c0-.25,0-.63.13-.75s.12-.5.25-.63a1.66,1.66,0,0,1,.5-.37,2.05,2.05,0,0,1,1.25,0,1.66,1.66,0,0,1,.5.37,1,1,0,0,1,.25.63,1.53,1.53,0,0,1,.13.75c0,.25,0,.63-.13.75s-.12.5-.25.63-.25.37-.5.37a1.09,1.09,0,0,1-.63.13" transform="translate(-414.18 -634.45)"/><path class="cls-1" d="M588.25,701.32c-.13.13-.13.25-.25.25a.39.39,0,0,1-.25.13.42.42,0,0,0-.25.12h-.25c-.63,0-.88-.37-.88-1.25v-2.25h.25v2.25a1.39,1.39,0,0,0,.12.75.66.66,0,0,0,.51.25c.25,0,.37,0,.5-.12s.37-.25.5-.5v-2.51h.25v3.38h-.25Z" transform="translate(-414.18 -634.45)"/><path class="cls-1" d="M587.12,702c-.5,0-1.13-.25-1.13-1.38v-2.38h.63v2.38a2.7,2.7,0,0,0,.12.63.74.74,0,0,0,.88,0l.38-.38v-2.63h.62V702H588v-.25a.41.41,0,0,1-.25.12c-.13,0-.25.13-.38.13h-.25" transform="translate(-414.18 -634.45)"/><rect class="cls-1" x="179.08" y="66.62" width="0.63" height="0.63"/><path class="cls-1" d="M593.26,701.7h.5v-.5h-.5Zm.62.12h-.75v-.75h.75Z" transform="translate(-414.18 -634.45)"/><rect class="cls-1" x="181.34" y="66.62" width="0.63" height="0.63"/><path class="cls-1" d="M595.51,701.7h.5v-.5h-.5Zm.63.12h-.75v-.75h.75Z" transform="translate(-414.18 -634.45)"/><rect class="cls-1" x="183.59" y="66.62" width="0.63" height="0.63"/><path class="cls-1" d="M597.77,701.7h.5v-.5h-.5Zm.62.12h-.62v-.75h.75v.75Z" transform="translate(-414.18 -634.45)"/><path class="cls-1" d="M634.71,695.19a10.6,10.6,0,0,1-1.88.62l.13-.37a17.22,17.22,0,0,0,2-.75Zm0-.76a9.89,9.89,0,0,1-1.88.63l.13-.37a19.09,19.09,0,0,0,2-.76Z" transform="translate(-414.18 -634.45)"/><path class="cls-1" d="M649.61,668.14h-2.25a7.28,7.28,0,0,1-1.63,2.5,7.66,7.66,0,0,1-2.38,1.75,11.21,11.21,0,0,1-2.88,1.13,13.4,13.4,0,0,1-3.13.38,12.91,12.91,0,0,1-4.13-.75,6.73,6.73,0,0,1-2.51-1.88,5.05,5.05,0,0,1-1.13-2.51,7.56,7.56,0,0,1,.13-2.88,10.27,10.27,0,0,1,1-2.75,11.64,11.64,0,0,1,1.75-2.38l1.26,1.12a9.17,9.17,0,0,0-1.51,2.63,4.62,4.62,0,0,0-.12,2.88,5.83,5.83,0,0,0,1.5,2.51,5.58,5.58,0,0,0,3.51,1.25,11.7,11.7,0,0,0,4.51-.87,7.26,7.26,0,0,0,3.5-2.51,10.28,10.28,0,0,0-1-.38L643,667a13.32,13.32,0,0,1-1.25-.63,3.8,3.8,0,0,1-1-1,2,2,0,0,1-.25-1.25c0-.5.12-1,.12-1.38A6.89,6.89,0,0,0,642.1,664a9,9,0,0,0,1.5.88,6.64,6.64,0,0,0,1.88.5,13.1,13.1,0,0,0,2.38.13h1.75Z" transform="translate(-414.18 -634.45)"/><path class="cls-1" d="M654.24,668.26H646.1a1.51,1.51,0,0,1-1.12-.37,1.56,1.56,0,0,1-.5-1,1.13,1.13,0,0,1,.5-1,1.51,1.51,0,0,1,1.12-.37h8.14Z" transform="translate(-414.18 -634.45)"/><path class="cls-1" d="M663.39,665.51a2.36,2.36,0,0,0-.13-.88,2,2,0,0,0-.5-.88L662,663a1.35,1.35,0,0,0-1-.25,1.54,1.54,0,0,0-1.26.75,6.55,6.55,0,0,0-1.12,2.13h4.76Zm-9.27,2.75v-2.75h2.5c.13-.51.25-1,.38-1.63a5.92,5.92,0,0,1,.75-1.88,5,5,0,0,1,1.25-1.5,3.06,3.06,0,0,1,1.88-.63,3.48,3.48,0,0,1,2,.63,7.28,7.28,0,0,1,1.25,1.5,6.16,6.16,0,0,1,.75,1.88c.12.62.38,1.25.5,1.75h1.5v2.76H654.12Z" transform="translate(-414.18 -634.45)"/><path class="cls-1" d="M673.53,669.89l1.5,1.5-1.62,1.5-1.51-1.5Zm-3.26-.13,1.51,1.51-1.63,1.5-1.5-1.5Zm5-11.39a15,15,0,0,1,2.13,7.14l-.25,2.75H666.27v-2.75h8.89a8.27,8.27,0,0,0-1.13-2.38,12,12,0,0,0-1.38-2.13Z" transform="translate(-414.18 -634.45)"/><path class="cls-1" d="M685.55,668.26a12,12,0,0,1-1.38,4.26,18.48,18.48,0,0,1-2.75,3.63l-3.13-2.38a13.46,13.46,0,0,0,3.63-3.25,10.19,10.19,0,0,0,1.5-4.14,7.29,7.29,0,0,0-.37-1.37,6.79,6.79,0,0,0-.63-1.38,10.57,10.57,0,0,0-.75-1.25l-.75-1.13,2.13-2.63a14.13,14.13,0,0,1,1.63,3.38c.37,1.13.62,2.25.87,3.38h1.25v2.76h-1.25Z" transform="translate(-414.18 -634.45)"/><path class="cls-1" d="M694.44,659.24a11.39,11.39,0,0,1,3,1.38,8.33,8.33,0,0,1,2.25,2,6.87,6.87,0,0,1,1.26,2.75h.87v2.76h-15.4v-2.63h11a4.18,4.18,0,0,0-1.38-2.13,6.55,6.55,0,0,0-2.25-1.25,16.39,16.39,0,0,0-2.76-.63,20.42,20.42,0,0,0-2.75-.13v-2.63a3.11,3.11,0,0,1,.37-1.62,5.67,5.67,0,0,1,1.26-1.26c.62-.37,1.5-.87,2.63-1.5s2.63-1.38,4.38-2.5a2.48,2.48,0,0,1,1.88-.51,1,1,0,0,1,.75,1.13v2.26a1.16,1.16,0,0,0-.75-.5,3,3,0,0,0-1.51.5l-6.63,3.63c1.37.37,2.63.62,3.75.87" transform="translate(-414.18 -634.45)"/><polygon class="cls-1" points="215.4 35.94 215.4 38.2 213.27 38.2 213.14 35.94 215.4 35.94"/><polygon class="cls-1" points="217.78 38.32 217.78 40.58 215.65 40.45 215.52 38.32 217.78 38.32"/><path class="cls-1" d="M631.83,689.43l.75.75-.75.75-.75-.75Zm-1.63,0,.75.75-.75.75-.75-.75Zm4.51-3.14H634a5.1,5.1,0,0,1-.63,1.13,1.63,1.63,0,0,1-.88.75,3.47,3.47,0,0,1-1,.5,3.31,3.31,0,0,1-1.12.13,2.94,2.94,0,0,1-2.38-1.13,2,2,0,0,1-.38-1.13v-1.25c.13-.37.25-.87.38-1.25a2.61,2.61,0,0,1,.62-1l.5.5a4.65,4.65,0,0,0-.5,1.13,4.39,4.39,0,0,0-.12,1.25,2.48,2.48,0,0,0,.5,1,1.91,1.91,0,0,0,1.25.5,3.86,3.86,0,0,0,1.63-.37,3.37,3.37,0,0,0,1.25-1c-.12,0-.25-.12-.38-.12s-.25-.13-.37-.13-.25-.12-.38-.25l-.37-.37a.74.74,0,0,1-.13-.5V684a2,2,0,0,0,.5.5c.13.13.38.25.5.38s.38.12.63.25h1.5v1.12Z" transform="translate(-414.18 -634.45)"/><path class="cls-1" d="M638.34,685.17a.46.46,0,0,0-.13-.38.46.46,0,0,1-.12-.37c-.13-.13-.13-.25-.25-.25s-.25-.13-.38-.13a1,1,0,0,0-.5.25,3.05,3.05,0,0,0-.37.88Zm-1-2.38a1.29,1.29,0,0,1,1,.5,2.84,2.84,0,0,1,.63,1,3.83,3.83,0,0,1,.25,1.13,2.36,2.36,0,0,1-.13,1h-4.38v-1.13H636a4.08,4.08,0,0,0,.13-.75,1.32,1.32,0,0,1,.25-.75,2.91,2.91,0,0,1,.37-.63A.58.58,0,0,1,637.34,682.79Z" transform="translate(-414.18 -634.45)"/><path class="cls-1" d="M644.6,683.54v1c0,.13.13.38.13.5s.12.25.25.25h.12v1.13h-.62c-.13,0-.38-.12-.38-.25a.79.79,0,0,1-.12-.5,3.6,3.6,0,0,1-1.38,1,4.9,4.9,0,0,1-2,.25l-.75-1.13H641a1.94,1.94,0,0,0,.88-.12v-1.25c-.13-.38-.25-.88-.38-1.26s-.37-.75-.5-1.25a11.38,11.38,0,0,0-.5-1.12l1-.88a9.5,9.5,0,0,0,.5,1.25,8.79,8.79,0,0,1,.5,1.38,5.17,5.17,0,0,1,.25,1.5,2,2,0,0,1-.25,1.25,1.1,1.1,0,0,0,.88-.75,3.77,3.77,0,0,0,.25-1.12v-3.14l1.13-.62v3.88Z" transform="translate(-414.18 -634.45)"/><path class="cls-1" d="M651.87,683.92a4.86,4.86,0,0,1,.12,1.25v.5a.79.79,0,0,1-.12.5H645V685h2c0-.12,0-.12-.12-.25a.44.44,0,0,1-.13-.37c0-.13-.12-.25-.12-.38a.45.45,0,0,0-.13-.25l.75-.88c0,.13.13.38.13.5s.12.38.12.51.13.37.13.5.12.37.12.5h1.38l-.38-.75a6.49,6.49,0,0,1-.37-.88l.75-1a3.72,3.72,0,0,1,.5,1.37,4.6,4.6,0,0,1,.13,1.26h1.37a6,6,0,0,0-.37-.88,3.29,3.29,0,0,0-.5-.88l.75-1A5.67,5.67,0,0,1,651.87,683.92Z" transform="translate(-414.18 -634.45)"/><path class="cls-1" d="M654,688.92c.13.13.25.13.38.26h.5c.13,0,.38-.13.5-.13s.25-.13.38-.25l-.25.88c-.13,0-.25.12-.5.12a.66.66,0,0,0-.5.25.94.94,0,0,1-.51.25l-.37.38v-.13c0-.12.12-.37.12-.5s.13-.25.25-.37c-.12,0-.37-.13-.37-.25a.46.46,0,0,1-.13-.38.93.93,0,0,1,.13-.63,1.8,1.8,0,0,1,.37-.5,1,1,0,0,1,.63-.25h.63l-.13.75a.83.83,0,0,0-.75,0A.91.91,0,0,0,654,688.92Zm3.64-5.38a6.56,6.56,0,0,1-.25,1.63,3.52,3.52,0,0,1-.88,1,3.68,3.68,0,0,1-1.25.5,6.42,6.42,0,0,1-1.63.13l-.75-1.13H654a1.8,1.8,0,0,0,.88-.13v-1.25c-.12-.37-.25-.88-.37-1.25a13.36,13.36,0,0,1-.51-1.25,4.65,4.65,0,0,1-.5-1.13l1-.88A8.34,8.34,0,0,0,655,681a10.34,10.34,0,0,1,.5,1.37,6.53,6.53,0,0,1,.25,1.51,2.06,2.06,0,0,1-.25,1.25,1.1,1.1,0,0,0,.87-.75,3.54,3.54,0,0,0,.25-1.13v-3.13l1.13-.63v4Z" transform="translate(-414.18 -634.45)"/><polygon class="cls-1" points="245.83 44.96 245.83 51.22 244.7 51.85 244.7 45.71 245.83 44.96"/><path class="cls-1" d="M665.52,686.29a7.41,7.41,0,0,1-.51,1.76,10,10,0,0,1-1,1.5l-1.12-1a7.1,7.1,0,0,0,1.37-1.25,3.65,3.65,0,0,0,.5-1.76c0-.12-.12-.37-.12-.5a.67.67,0,0,0-.25-.5c-.13-.12-.13-.37-.25-.5a.88.88,0,0,1-.25-.5l.75-1.13a6.45,6.45,0,0,1,.62,1.38,5.17,5.17,0,0,1,.26,1.38h.5v1.12Z" transform="translate(-414.18 -634.45)"/><path class="cls-1" d="M669.4,679.78l.75.75-.75.76-.75-.76Zm-.13,4.89c.13,0,.13-.13.25-.25s.25-.13.25-.25.13-.25.25-.38a.39.39,0,0,0,.13-.25c0-.13-.13-.25-.25-.38s-.38-.12-.63-.12H668l.75.75A4.67,4.67,0,0,1,669.27,684.67Zm2.51,1.62h-2a.46.46,0,0,1-.37-.12l-.25-.25-.25.25a.48.48,0,0,1-.38.12h-2.63v-1.12h2.63a2.52,2.52,0,0,0-.5-.75,3.21,3.21,0,0,0-.5-.63c-.25-.13-.38-.38-.63-.38a1.91,1.91,0,0,0-.87-.12l.62-1.13c.25,0,.63-.12,1-.12s.88-.13,1.26-.13a4.13,4.13,0,0,1,1.25.13,2.48,2.48,0,0,1,1,.5c.13.25.25.37.25.62a1.18,1.18,0,0,1-.12.63c-.13.13-.13.38-.38.5s-.25.38-.38.5l-.37.38h1.63Z" transform="translate(-414.18 -634.45)"/><path class="cls-1" d="M680.17,685.17a1.11,1.11,0,0,0-.13-.63.64.64,0,0,0-.25-.5l-.37-.38a1,1,0,0,0-.63-.12,1.64,1.64,0,0,0-.75.12,3.35,3.35,0,0,0-.63.38,2.36,2.36,0,0,1-.62.5,2,2,0,0,0-.5.5h3.88Zm.75,0a.74.74,0,0,1-.13.5.79.79,0,0,1-.12.5h-9V685h2a4.85,4.85,0,0,0-.63-1.38l.88-.87c.12.37.25.75.37,1.13a3.48,3.48,0,0,1,.25,1.12h.38l.62-.62.76-.76a5.61,5.61,0,0,1,.87-.75,3.29,3.29,0,0,1,.88-.5,2.38,2.38,0,0,1,.88-.25,2,2,0,0,1,.87.13,2.12,2.12,0,0,1,.63.5l.37.75a1.53,1.53,0,0,1,.13.75A1.11,1.11,0,0,1,680.92,685.17Z" transform="translate(-414.18 -634.45)"/><path class="cls-1" d="M686.68,683.54a6.56,6.56,0,0,1-.25,1.63,3.38,3.38,0,0,1-.88,1,3.6,3.6,0,0,1-1.25.5,6.38,6.38,0,0,1-1.63.13l-.75-1.13h1.13a1.78,1.78,0,0,0,.87-.13v-1.25c-.12-.37-.25-.88-.37-1.25a11.19,11.19,0,0,1-.5-1.25,4.3,4.3,0,0,1-.5-1.13l1-.88a8.34,8.34,0,0,0,.5,1.26,9.09,9.09,0,0,1,.5,1.37,6,6,0,0,1,.25,1.51,2.06,2.06,0,0,1-.25,1.25,1.13,1.13,0,0,0,.88-.75,3.83,3.83,0,0,0,.25-1.13v-3.13l1.12-.63v4Zm-4.51-5.13c.13.12.25.12.38.25h.5c.12,0,.37-.13.5-.13s.25-.12.37-.25l-.25.88c-.12,0-.25.12-.5.12a.67.67,0,0,0-.5.25.88.88,0,0,1-.5.25l-.37.38-.13-.13c0-.12.13-.37.13-.5s.12-.25.25-.37c-.13,0-.38-.13-.38-.25a.46.46,0,0,1-.13-.38.93.93,0,0,1,.13-.63,1.8,1.8,0,0,1,.38-.5,1,1,0,0,1,.62-.25h.63l-.13.75a.83.83,0,0,0-.75,0C682.55,677.9,682.3,678.15,682.17,678.41Z" transform="translate(-414.18 -634.45)"/><polygon class="cls-1" points="274.76 44.96 274.76 51.22 273.63 51.85 273.63 45.71 274.76 44.96"/><path class="cls-1" d="M699.08,686.29h-.63a3.48,3.48,0,0,1-.25,1.13,3.78,3.78,0,0,1-.63,1,4,4,0,0,1-.87.63,3,3,0,0,1-2.38,0,2.28,2.28,0,0,1-.88-.63,2.61,2.61,0,0,1-.62-1,2.66,2.66,0,0,1,0-2.25,1.87,1.87,0,0,1,.75-1l.37.37a1.76,1.76,0,0,0-.37,1.13,3.27,3.27,0,0,0,.12,1.13,2.33,2.33,0,0,0,.63.87,1.53,1.53,0,0,0,1.13.38,1.77,1.77,0,0,0,1.37-.63,2.09,2.09,0,0,0,.5-1.63v-5.63l1.13-.63V685h.63v1.25Z" transform="translate(-414.18 -634.45)"/><path class="cls-1" d="M701.83,687.3l.75.75-.75.75-.75-.75Zm-1.63,0,.76.75-.76.75-.75-.75Zm2-5a7.52,7.52,0,0,1,.75,2.88l-.13,1.12h-4v-1.12h3.25c-.12-.38-.25-.63-.37-1s-.38-.63-.5-.88Z" transform="translate(-414.18 -634.45)"/><path class="cls-1" d="M704.21,684.67a.28.28,0,0,0,.25.25,1,1,0,0,0,.63.12h1v-.37a.48.48,0,0,0-.12-.38,2.19,2.19,0,0,0-.38-.75,1.29,1.29,0,0,0-.63-.25.64.64,0,0,0-.5.25A4.87,4.87,0,0,0,704.21,684.67Zm2.76,1.62a10.66,10.66,0,0,1-.5,1.88,11.1,11.1,0,0,1-1,1.63l-1.12-1a5.64,5.64,0,0,0,1.25-1.13,5.87,5.87,0,0,0,.63-1.25h-1.13a1.11,1.11,0,0,1-.63-.13c-.25-.12-.37-.12-.5-.25l-.25-.25v-.37a2.39,2.39,0,0,1,.13-.88,2.3,2.3,0,0,1,.25-1,2,2,0,0,1,.5-.88,1.07,1.07,0,0,1,.75-.37.88.88,0,0,1,.75.37,2.52,2.52,0,0,1,.5.75,10.18,10.18,0,0,1,.38,1.88h.37v1.13H707Z" transform="translate(-414.18 -634.45)"/><path class="cls-1" d="M710.6,685.17a.46.46,0,0,0-.13-.38.46.46,0,0,1-.12-.37c-.13-.13-.13-.25-.25-.25s-.25-.13-.38-.13a1,1,0,0,0-.5.25,3.05,3.05,0,0,0-.37.88Zm-3.38,1.12v-1.12h.87a5.59,5.59,0,0,0,.13-.63,1.71,1.71,0,0,1,.25-.75,1.31,1.31,0,0,1,.5-.63,1,1,0,0,1,.63-.25,1.85,1.85,0,0,1,.75.25,1.31,1.31,0,0,1,.5.63,1.85,1.85,0,0,1,.25.75c0,.25.13.5.13.75h.5v1.13h-4.51Z" transform="translate(-414.18 -634.45)"/><path class="cls-1" d="M715,680.16l.75.75-.75.75-.75-.75Zm-1.88,0,.75.75-.75.75-.75-.75Zm3.13,6.13h-4.5v-1.12H715a9.05,9.05,0,0,1-.37-1,6.11,6.11,0,0,0-.5-.88l.87-1.13a5.57,5.57,0,0,1,.75,3h.38v1.12Z" transform="translate(-414.18 -634.45)"/><polygon class="cls-1" points="305.06 51.85 301.93 51.85 301.93 50.72 303.44 50.72 303.44 45.84 304.56 45.21 304.56 50.72 305.19 50.72 305.19 51.85 305.06 51.85"/><polygon class="cls-1" points="307.44 51.85 304.94 51.85 304.94 50.72 306.44 50.72 306.44 45.84 307.57 45.21 307.57 51.85 307.44 51.85"/><rect class="cls-1" x="55.48" y="46.08" width="1.13" height="6.76"/><path class="cls-1" d="M472,686a2.7,2.7,0,0,0,1.51.38c.75,0,1.12-.38,1.12-.88s-.25-.87-1.12-1.12a2.12,2.12,0,0,1-1.63-2,2,2,0,0,1,2.13-2,2.69,2.69,0,0,1,1.5.37l-.25,1a2.42,2.42,0,0,0-1.25-.38c-.75,0-1,.38-1,.88s.38.75,1.13,1.12c1,.5,1.63,1,1.63,2s-.75,2-2.38,2a4.56,4.56,0,0,1-1.63-.37Z" transform="translate(-414.18 -634.45)"/><polygon class="cls-1" points="62.62 46.09 63.74 46.09 63.74 51.85 66.25 51.85 66.25 52.85 62.62 52.85 62.62 46.09"/><path class="cls-1" d="M484.31,684.54l-.51-1.75a4.7,4.7,0,0,1-.25-1.25c-.12.37-.12.87-.25,1.25l-.5,1.63h1.51Zm-1.76.88-.5,1.88h-1.13l2-6.77h1.38l2,6.77h-1.25l-.5-1.88Z" transform="translate(-414.18 -634.45)"/><path class="cls-1" d="M492.2,684.54c0-.88-.13-1.88-.13-2.88l-.75,2.63-.88,3h-.87l-.76-2.88a19.61,19.61,0,0,1-.62-2.63c0,.87-.13,2-.13,2.88l-.12,2.75h-1l.37-6.76h1.5l.76,2.75c.25.76.37,1.63.62,2.38a17.83,17.83,0,0,1,.63-2.38l.87-2.75h1.51l.37,6.76h-1.12Z" transform="translate(-414.18 -634.45)"/><rect class="cls-1" x="80.4" y="46.08" width="1.13" height="6.76"/><path class="cls-1" d="M501.34,687.17a4.27,4.27,0,0,1-1.63.25c-2,0-3.13-1.38-3.13-3.38,0-2.25,1.38-3.63,3.25-3.63a3.53,3.53,0,0,1,1.51.25l-.25,1a3.24,3.24,0,0,0-1.26-.25c-1.25,0-2.12.88-2.12,2.5s.75,2.51,2.12,2.51a3.86,3.86,0,0,0,1.26-.25Z" transform="translate(-414.18 -634.45)"/><path class="cls-1" d="M509.35,684.54c0-.88-.12-1.88-.12-2.88-.25.88-.5,1.75-.76,2.63l-.87,3h-.88l-.87-2.88a18.24,18.24,0,0,1-.63-2.63c0,.87-.13,2-.13,2.88l-.12,2.75h-1l.37-6.76h1.51l.75,2.75c.25.76.37,1.63.62,2.38a17.83,17.83,0,0,1,.63-2.38l.88-2.75h1.5l.37,6.76h-1.12Z" transform="translate(-414.18 -634.45)"/><rect class="cls-1" x="97.56" y="46.08" width="1.13" height="6.76"/><path class="cls-1" d="M518.49,687.17a4.21,4.21,0,0,1-1.62.25c-2,0-3.14-1.38-3.14-3.38,0-2.25,1.38-3.63,3.26-3.63a3.51,3.51,0,0,1,1.5.25l-.25,1a3.23,3.23,0,0,0-1.25-.25c-1.25,0-2.13.88-2.13,2.5s.75,2.51,2.13,2.51a3.8,3.8,0,0,0,1.25-.25Z" transform="translate(-414.18 -634.45)"/><path class="cls-1" d="M520.62,683.66h.63a1.15,1.15,0,0,0,1.25-1.12c0-.75-.5-1.13-1.25-1.13h-.75v2.25Zm-1.12-3a6.37,6.37,0,0,1,1.75-.13,2.63,2.63,0,0,1,1.88.5,1.6,1.6,0,0,1,.5,1.38,1.83,1.83,0,0,1-1.13,1.76,1.63,1.63,0,0,1,.88,1.25c.25.87.37,1.63.5,1.88h-1.25a6.18,6.18,0,0,1-.38-1.63,1.22,1.22,0,0,0-1.13-1.25h-.62v2.75h-1.13v-6.51Z" transform="translate(-414.18 -634.45)"/><path class="cls-1" d="M525.51,684c0,1.38.62,2.51,1.75,2.51S529,685.42,529,684s-.62-2.5-1.75-2.5S525.51,682.54,525.51,684Zm4.63-.12c0,2.25-1.25,3.63-2.88,3.63s-2.88-1.51-2.88-3.51,1.13-3.51,2.88-3.51S530.14,681.91,530.14,683.92Z" transform="translate(-414.18 -634.45)"/><polygon class="cls-1" points="116.84 46.09 120.35 46.09 120.35 47.09 117.97 47.09 117.97 48.97 120.22 48.97 120.22 49.97 117.97 49.97 117.97 52.85 116.84 52.85 116.84 46.09 116.84 46.09"/><rect class="cls-1" x="121.47" y="46.08" width="1.13" height="6.76"/><path class="cls-1" d="M538,687.3v-6.77h1.25l1.63,2.88a17.74,17.74,0,0,1,1,2.26,21.19,21.19,0,0,1-.12-2.88v-2.26h1v6.77h-1.13l-1.63-3c-.37-.75-.75-1.63-1.12-2.38v5.26H538Z" transform="translate(-414.18 -634.45)"/><path class="cls-1" d="M547.17,684.54l-.5-1.63a4.55,4.55,0,0,1-.25-1.25c-.13.38-.13.88-.25,1.25l-.5,1.63Zm-1.75.88-.5,1.88h-1.13l2-6.77h1.38l2,6.77h-1.26l-.5-1.88Z" transform="translate(-414.18 -634.45)"/><path class="cls-1" d="M550.05,687.3v-6.77h1.25l1.63,2.88a17.74,17.74,0,0,1,1,2.26,21.19,21.19,0,0,1-.12-2.88v-2.26h1v6.77h-1.13l-1.62-3c-.38-.75-.76-1.63-1.13-2.38v5.26h-.88Z" transform="translate(-414.18 -634.45)"/><path class="cls-1" d="M560.57,687.17a4.27,4.27,0,0,1-1.63.25c-2,0-3.13-1.38-3.13-3.38,0-2.25,1.38-3.63,3.26-3.63a3.51,3.51,0,0,1,1.5.25l-.25,1a3.23,3.23,0,0,0-1.25-.25c-1.25,0-2.13.88-2.13,2.5s.75,2.51,2.13,2.51a3.8,3.8,0,0,0,1.25-.25Z" transform="translate(-414.18 -634.45)"/><polygon class="cls-1" points="150.78 49.84 148.52 49.84 148.52 51.85 151.15 51.85 151.15 52.85 147.4 52.85 147.4 46.09 150.9 46.09 150.9 47.09 148.4 47.09 148.4 48.84 150.65 48.84 150.65 49.84 150.78 49.84"/></svg>