<!-- Generator: Adobe Illustrator 22.0.0, SVG Export Plug-In  -->
<svg version="1.1"
	 xmlns="http://www.w3.org/2000/svg" xmlns:xlink="http://www.w3.org/1999/xlink" xmlns:a="http://ns.adobe.com/AdobeSVGViewerExtensions/3.0/"
	 x="0px" y="0px" width="154px" height="51px" viewBox="0 0 154 51" style="enable-background:new 0 0 154 51;"
	 xml:space="preserve">
<style type="text/css">
	.st0{fill:#FFFFFF;}
	.st1{fill:none;stroke:#FFFFFF;}
</style>
<defs>
</defs>
<path class="st0" d="M53.5,14.8l1.6,4h-3.1L53.5,14.8z M51.7,19.5h3.7l0.7,1.6H57l-3-7.4h-1.1l-3,7.4H51L51.7,19.5z"/>
<polygon class="st0" points="58.9,18 63.2,21.8 64.1,21.8 64.1,17 63.2,17 63.2,20.7 58.9,17 58,17 58,21.8 58.9,21.8 "/>
<path class="st0" d="M68.3,20.4h-1.6v-5.7h1.6c1.8,0,2.8,1.3,2.8,2.9C71.2,19.1,70.1,20.4,68.3,20.4z M68.3,13.8h-2.5v7.4h2.5
	c2.3,0,3.8-1.6,3.8-3.7C72.1,15.4,70.6,13.8,68.3,13.8z"/>
<path class="st0" d="M74.5,14.6h1.9c0.9,0,1.5,0.6,1.5,1.4c0,0.8-0.6,1.4-1.5,1.4h-1.9V14.6z M74.5,18.3h1.5l1.9,2.9h1.1l-2-3
	c1-0.1,1.9-0.8,1.9-2.1c0-1.4-1-2.2-2.3-2.2h-3v7.4h0.9V18.3z"/>
<path class="st0" d="M83.6,20.5c1.6,0,2.7-1.3,2.7-3c0-1.7-1.1-3-2.7-3c-0.5,0-0.9,0.1-1.2,0.3c-0.9,0.5-1.5,1.5-1.5,2.7
	c0,1.6,1,2.9,2.5,3C83.5,20.5,83.6,20.5,83.6,20.5z M83.6,21.3c-2.2,0-3.6-1.6-3.6-3.8c0-1.7,0.9-3.1,2.4-3.6
	c0.4-0.1,0.8-0.2,1.3-0.2c2.2,0,3.7,1.6,3.7,3.8S85.8,21.3,83.6,21.3L83.6,21.3z"/>
<rect x="88.7" y="13.8" class="st0" width="0.9" height="7.4"/>
<path class="st0" d="M94,20.4c1.7,0,2.8-1.3,2.8-2.9c0-1.6-1-2.9-2.8-2.9h-1.2c0-0.3-0.1-0.5-0.1-0.8h1.3c2.3,0,3.8,1.6,3.8,3.7
	c0,2-1.3,3.5-3.4,3.7C94.2,20.9,94.1,20.6,94,20.4z M91.4,21.2v-7.4h1.2c0,0.3,0.1,0.5,0.1,0.8h-0.4v5.7h1.6c0,0,0.1,0,0.1,0
	c0.1,0.3,0.2,0.5,0.3,0.8c-0.1,0-0.2,0-0.4,0H91.4z"/>
<path class="st0" d="M103.2,18.7l1.6-4l1.6,4H103.2z M104.2,13.8l-3,7.4h1.1l0.7-1.6h3.7l0.7,1.6h1.1l-3-7.4H104.2z"/>
<path class="st0" d="M110.2,17.4v-2.8h1.9c0.9,0,1.5,0.6,1.5,1.4c0,0.8-0.6,1.4-1.5,1.4H110.2z M114.5,16c0-1.2-0.8-2.2-2.3-2.2h-3
	v7.4h0.9v-2.9h2C113.7,18.3,114.5,17.2,114.5,16z"/>
<path class="st0" d="M118.6,17.4h-1.9v-2.8h1.9c0.9,0,1.5,0.6,1.5,1.4C120.1,16.9,119.5,17.4,118.6,17.4z M118.7,13.8h-3v7.4h0.9
	v-2.9h2c1.5,0,2.3-1,2.3-2.2C121,14.8,120.2,13.8,118.7,13.8z"/>
<path class="st0" d="M128.4,20.5c-1.7,0-2.7-1.3-2.7-3c0-1.7,1.1-3,2.7-3c1.6,0,2.7,1.3,2.7,3C131.2,19.2,130.1,20.5,128.4,20.5z
	 M128.4,13.7c-2.2,0-3.7,1.6-3.7,3.8c0,2.2,1.5,3.8,3.7,3.8c2.2,0,3.7-1.6,3.7-3.8C132.1,15.3,130.6,13.7,128.4,13.7z"/>
<polygon class="st0" points="138.7,19.6 134.5,13.8 133.5,13.8 133.5,21.2 134.5,21.2 134.5,15.3 138.8,21.2 139.7,21.2 139.7,13.8
	138.7,13.8 "/>
<path class="st0" d="M55.1,34.8h3v1.4c-0.5,0.4-1.4,0.9-2.4,0.9c-2.1,0-3.6-1.6-3.6-3.8c0-2.2,1.5-3.7,3.6-3.7
	c1.2,0,2.2,0.7,2.7,1.5l2-1.1c-0.9-1.4-2.3-2.6-4.7-2.6c-3.3,0-6.1,2.3-6.1,5.9c0,3.6,2.7,5.9,6.1,5.9c2.1,0,3.7-0.9,4.9-2.2v-4.4
	h-5.4V34.8z"/>
<path class="st0" d="M66.3,37.3c-1.4,0-2.1-1.1-2.1-2.4c0-1.3,0.8-2.4,2.1-2.4c1.4,0,2.1,1.1,2.1,2.4C68.4,36.2,67.6,37.3,66.3,37.3
	z M66.3,30.5c-2.7,0-4.4,2-4.4,4.3c0,2.4,1.6,4.4,4.4,4.4c2.7,0,4.4-2,4.4-4.4C70.6,32.5,69,30.5,66.3,30.5z"/>
<path class="st0" d="M76.1,37.3c-1.4,0-2.1-1.1-2.1-2.4c0-1.3,0.8-2.4,2.1-2.4c1.4,0,2.1,1.1,2.1,2.4C78.2,36.2,77.4,37.3,76.1,37.3
	z M76.1,30.5c-2.7,0-4.4,2-4.4,4.3c0,2.4,1.6,4.4,4.4,4.4c2.7,0,4.4-2,4.4-4.4C80.5,32.5,78.8,30.5,76.1,30.5z"/>
<path class="st0" d="M83.8,34.8c0,1.4,0.9,2.3,2.1,2.3c0.7,0,1.5-0.4,1.9-0.9v-2.7c-0.4-0.5-1.1-0.9-1.9-0.9
	C84.6,32.5,83.8,33.3,83.8,34.8z M81.9,41.1l1-1.6c0.7,0.7,1.5,1,2.6,1c1,0,2.3-0.5,2.3-2.1v-0.8c-0.7,0.8-1.5,1.3-2.6,1.3
	c-2.1,0-3.6-1.5-3.6-4.2c0-2.7,1.6-4.2,3.6-4.2c1,0,1.9,0.4,2.6,1.3v-0.4v-0.6h2.2v4.1v3.6c0,3.2-2.4,3.9-4.5,3.9
	C84,42.4,82.9,42.1,81.9,41.1z"/>
<polygon class="st0" points="93.3,39 92.1,39 92.1,37.6 92.1,27.6 94.3,27.6 94.3,39 "/>
<path class="st0" d="M101.9,33.2c-0.1-0.3-0.4-0.5-0.7-0.7c-0.6-0.6-1.2-1.3-1.7-2c0.2,0,0.4,0,0.6,0c2.5,0,4.1,1.8,4.1,4.6v0.2
	C103.5,34.7,102.7,34,101.9,33.2z M95.9,34.9c0-2.2,1.5-4,3.7-4.3c0.5,0.7,1.1,1.3,1.7,2c-0.3-0.2-0.7-0.3-1.1-0.3
	c-1.4,0-1.9,1-2,1.8h4.1c0-0.3-0.1-0.6-0.3-0.9c0.8,0.7,1.6,1.5,2.4,2.1v0.2h-6.1c0.1,1,1,1.9,2.4,1.9c0.7,0,1.7-0.3,2.2-0.8l1,1.4
	c-0.8,0.8-2.1,1.1-3.4,1.1C97.8,39.2,95.9,37.5,95.9,34.9z"/>
<path class="st0" d="M115,33.2h-3v-4.3h3c1.4,0,2.3,0.9,2.3,2.2S116.3,33.2,115,33.2z M115.1,27.6h-4.6V39h1.4v-4.5h3.2
	c2.3,0,3.6-1.6,3.6-3.4S117.4,27.6,115.1,27.6z"/>
<rect x="120.5" y="27.6" class="st0" width="1.3" height="11.4"/>
<path class="st0" d="M129.6,37.3c-0.5,0.7-1.4,1-2.3,1c-1.2,0-2-0.8-2-1.8c0-1.1,0.8-1.8,2-1.8c0.9,0,1.8,0.3,2.3,1V37.3z
	 M127.6,30.5c-1.4,0-2.4,0.4-3.3,1.4l0.6,0.9c0.7-0.8,1.5-1.1,2.5-1.1c1.2,0,2.1,0.6,2.1,1.7v1.5c-0.7-0.8-1.6-1.1-2.7-1.1
	c-1.4,0-2.9,0.9-2.9,2.7c0,1.8,1.5,2.7,2.9,2.7c1.1,0,2.1-0.4,2.7-1.1V39h1.3v-5.7C130.8,31.3,129.4,30.5,127.6,30.5z"/>
<path class="st0" d="M135.1,40.4l0.5-1.2l-3.5-8.4h1.4l2.8,6.8l2.7-6.8h1.4l-3.9,9.3c-0.6,0.2-1.1,0.4-1.7,0.6
	C135,40.6,135,40.5,135.1,40.4z M132.9,42.3l0.2-1c0.1,0,0.2-0.1,0.3-0.1c0.1,0,0.3,0,0.4,0c0.4,0,0.8-0.1,1-0.5
	c0.6-0.2,1.1-0.4,1.7-0.6l-0.3,0.6c-0.5,1.2-1.3,1.7-2.4,1.7C133.6,42.4,133.2,42.3,132.9,42.3z"/>
<path class="st0" d="M133.1,41.1l0,0.2c0.1,0,0.2-0.1,0.3-0.1C133.3,41.2,133.2,41.1,133.1,41.1z"/>
                      <path class="st0" d="M13.3,12.5c-0.5,0.6-0.8,1.3-0.8,2V36c0,0.8,0.3,1.5,0.7,2l6.7-6.7l6.7-6.7L13.3,12.5z"/>
                      <path class="st0" d="M36.9,28c1-0.6,1.6-1.6,1.6-2.7s-0.6-2.1-1.6-2.7l-4.8-2.6l-4.8,4.8l5.8,5.4L36.9,28z"/>
                      <path class="st0" d="M29.2,22l2.4-2.4l-14.2-7.8c-1-0.6-2.3-0.6-3.3,0c-0.1,0.1-0.3,0.2-0.4,0.2l13.2,12.2L29.2,22z"/>
                      <polygon class="st0" points="13.7,12.1 13.7,12.1 26.9,24.3 26.9,24.3 "/>
                      <polygon class="st0" points="26.9,24.3 29.2,22 26.9,24.3 "/>
                      <path class="st0" d="M13.6,38.4c0.1,0.1,0.3,0.2,0.4,0.3c0.5,0.3,1.1,0.5,1.7,0.5c0.6,0,1.2-0.1,1.6-0.4l15.3-8.4l-5.7-5.2l-6.4,6.4
                        L13.6,38.4z"/>
                      <path class="st0" d="M13.6,38.4l7-7L13.6,38.4z"/>
                      <polygon class="st0" points="26.9,25.1 26.9,25.1 32.6,30.3 32.6,30.3 "/>
                      <rect x="0.5" y="0.5" class="st1" width="153" height="50"/>
                      </svg>
